<svg width="36" height="36" viewBox="0 0 36 36" fill="none" xmlns="http://www.w3.org/2000/svg">
<rect x="0.5" y="0.5" width="35" height="35" rx="17.5" stroke="black"/>
<path fill-rule="evenodd" clip-rule="evenodd" d="M12 18C12 17.8011 12.079 17.6103 12.2197 17.4696C12.3603 17.329 12.5511 17.25 12.75 17.25H21.4395L18.219 14.031C18.0782 13.8901 17.9991 13.6991 17.9991 13.5C17.9991 13.3008 18.0782 13.1098 18.219 12.969C18.3598 12.8281 18.5508 12.749 18.75 12.749C18.9492 12.749 19.1402 12.8281 19.281 12.969L23.781 17.469C23.8508 17.5386 23.9063 17.6214 23.9441 17.7125C23.9819 17.8036 24.0013 17.9013 24.0013 18C24.0013 18.0986 23.9819 18.1963 23.9441 18.2874C23.9063 18.3785 23.8508 18.4613 23.781 18.531L19.281 23.031C19.1402 23.1718 18.9492 23.2509 18.75 23.2509C18.5508 23.2509 18.3598 23.1718 18.219 23.031C18.0782 22.8901 17.9991 22.6991 17.9991 22.5C17.9991 22.3008 18.0782 22.1098 18.219 21.969L21.4395 18.75H12.75C12.5511 18.75 12.3603 18.671 12.2197 18.5303C12.079 18.3896 12 18.1989 12 18Z" fill="black"/>
</svg>
