<svg width="1918" height="599" viewBox="0 0 1918 599" fill="none" xmlns="http://www.w3.org/2000/svg">
    <g clip-path="url(#clip0_1_281)">
        <path d="M33.6446 551.585C46.4368 547.472 59.2544 543.452 73.1587 539.037C69.3465 545.763 66.0488 551.735 62.5736 557.649C59.0055 563.714 55.2613 569.727 51.1817 576.446C59.3615 572.858 66.5101 570.234 70.0954 562.917C74.4095 554.123 80.3338 545.648 85.5659 537.042C87.0336 534.622 88.4992 533.427 90.9441 535.851C98.612 543.466 106.095 542.488 113.46 533.023C113.419 534.724 113.609 536.273 115.82 536.944C118.809 537.849 121.09 536.168 123.4 534.603C124.384 536.896 123.992 540.324 128.237 539.371C131.875 538.557 131.645 540.126 131.922 541.785C132.939 547.867 133.955 553.95 135.124 560.939C140.603 556.348 143.285 552.998 141.78 548.177C139.65 541.332 138.624 534.134 137 527.127C136.393 524.503 136.862 523.239 141.003 522.31C166.172 516.667 191.15 510.356 214.207 498.209C220.999 494.633 227.538 490.19 234.977 488.127C254.153 482.821 271.154 474.18 287.188 463.64C316.015 444.692 344.498 425.334 375.545 408.937C377.77 408.219 379.996 407.508 382.212 406.792C392.494 403.876 402.805 401.068 413.057 398.029C429.205 393.244 445.386 388.535 461.091 382.397C469.184 379.234 469.152 379.157 470.086 385.748C468.106 388.462 469.281 391.071 468.918 393.734C468.817 394.37 468.757 395.012 468.607 395.643C468.106 397.78 467.689 400.058 471.069 400.237C474.242 400.411 475.001 398.116 475.722 396.243C476.836 393.353 477.767 390.436 478.798 387.466C481.744 390.769 485.093 390.29 487.824 386.171C490.073 382.767 490.936 379.208 491.253 375.621C491.956 376.232 492.669 376.842 493.372 377.453C498.508 382.474 505.51 382.096 513.978 376.343C515.001 376.568 515.061 377.396 515.43 378.015C521.34 388.14 527.756 398.05 532.94 408.487C535.817 414.264 541.951 415.357 549.116 417.545C540.182 400.528 531.706 384.371 523.222 368.215C522.828 365.626 525.497 366.031 527.071 365.661C542.689 362.062 558.339 358.6 573.945 354.935C578.62 353.837 583.45 353.201 587.904 351.143C607.388 346.624 626.129 339.78 644.902 333.013C658.406 328.146 671.217 321.556 685.776 319.348C705.506 316.357 724.389 309.779 742.99 302.454C764.558 293.957 786.363 286.11 808.691 279.681C810.057 279.719 811.233 278.798 812.582 278.733C816.539 278.65 819.917 276.104 823.789 275.689C829.169 274.451 834.54 273.216 839.929 271.977C846.178 270.157 852.552 269.564 858.841 268.631C871.657 266.724 884.375 266.533 897.092 266.096C900.08 265.991 903.058 266.003 906.066 265.664C907.236 265.532 908.165 265.196 908.912 264.71C907.915 266.41 907.019 268.124 907.02 269.961C903.595 275.641 900.16 281.323 896.756 287.014C895.664 288.85 895.195 290.764 897.616 291.57C900.109 292.398 901.807 290.767 903.067 289.046C905.161 286.191 907.159 283.289 909.416 280.106C910.738 284.242 913.812 284.538 917.629 281.256C920.946 278.403 922.529 274.847 924.705 271.299C928.138 279.46 934.668 281.036 945.49 276.572C946.277 280.219 947.066 283.873 947.843 287.522C948.251 290.024 948.718 292.52 949.439 294.949C950.534 301.32 952.125 307.599 952.598 314.082C953.047 320.242 959.013 321.802 964.174 324.382C961.542 306.046 958.901 287.712 956.27 269.377C956.574 269.077 956.888 268.775 957.193 268.475C968.865 269.037 980.658 268.966 992.506 268.638C997.613 268.773 1002.71 269.017 1007.84 269.023C1015.79 269.026 1023.71 269.21 1031.81 268.105C1040.19 268.03 1048.63 267.161 1057.09 266.005C1069.39 265.319 1081.73 263.393 1094.05 262.19C1102.04 261.409 1110.03 260.567 1118.01 259.757C1108.14 271.04 1096.76 281.496 1085.74 292.843C1088.6 292.184 1090.52 291.888 1092.35 291.292C1096.65 289.881 1101.2 289.631 1104.75 285.845C1112.63 277.41 1121.19 269.339 1129.5 261.128C1133.4 257.259 1134.22 257.294 1136.17 261.346C1139.73 268.697 1147.27 269.521 1155.68 263.437C1156.75 262.662 1156.94 263.132 1157.23 263.715C1157.91 267.662 1160 268.239 1165.98 266.052C1166.22 268.17 1165.02 271.578 1168.44 271.565C1173.2 271.549 1171.82 273.873 1171.59 275.956C1171.14 279.901 1170.49 283.856 1170.12 287.8C1169.94 289.725 1168.92 291.85 1170.4 293.576C1175.59 291.113 1178.41 288.237 1178.58 283.413C1178.84 276.094 1180.27 268.653 1181.06 261.266C1181.38 258.33 1182.57 256.993 1186.65 257.072C1193.19 257.205 1199.85 256.923 1206.48 256.577C1223.12 255.707 1239.76 254.651 1256.28 249.403C1265.81 247.702 1274.98 244.278 1284.44 242.239C1285.45 242.757 1286.54 242.506 1287.66 242.028C1299.98 241.36 1312.07 238.857 1324.02 234.837C1343.99 228.116 1363.3 219.847 1382.88 212.229C1397.36 206.592 1412.09 201.621 1426.73 196.402C1432.46 195.389 1437.77 192.568 1443.58 191.868C1444.23 192.307 1445 192.231 1445.81 191.884C1451.82 191.442 1457.83 191.056 1463.85 190.561C1485.24 188.788 1506.62 187.399 1528.06 183.739C1536.79 182.253 1536.78 182.064 1534.61 189.024C1533.13 191.248 1532.44 193.56 1532.13 195.912C1531.59 196.892 1531.07 197.871 1530.52 198.854C1529.44 200.788 1528.56 202.911 1531.19 203.799C1534.27 204.843 1535.75 202.49 1537.13 200.642C1539.01 198.111 1540.73 195.517 1542.66 192.763C1544.53 196.506 1547.86 196.621 1551.48 193.275C1554.54 190.459 1556.23 187.091 1558.24 183.698C1562.37 191.591 1567.88 193.019 1578.2 189.03C1580.13 189.62 1579.56 191.282 1579.84 192.518C1580.98 197.447 1581.31 202.593 1583.08 207.361C1583.71 211.052 1584.27 214.759 1584.98 218.423C1588.77 217.453 1592.57 216.548 1596.38 215.656C1596.37 215.597 1596.35 215.557 1596.34 215.498C1595.86 212.929 1595.47 210.354 1595.38 207.703C1595.1 199.498 1593.17 191.643 1591.79 183.677C1591.65 182.837 1591.25 182.077 1590.54 181.49C1592.13 182.258 1594.09 182.229 1596.03 182.235C1619.16 182.252 1642.32 182.108 1665.71 180.359C1679.74 179.306 1693.69 176.505 1707.55 172.849C1722.74 168.844 1737.67 163.771 1753.13 160.928C1757.72 160.087 1762.34 159.154 1766.79 157.458C1767.37 157.033 1768.24 156.671 1768.97 156.275C1780.53 155.032 1791.55 151.495 1802.27 146.764C1802.36 146.857 1802.47 146.931 1802.58 146.998C1800.75 152.61 1799.68 158.255 1797.92 163.864C1797.6 164.887 1797.61 165.91 1797.84 166.885C1798.18 168.438 1799.01 169.677 1801.16 169.796C1803.26 169.918 1804.89 168.953 1806.09 167.474C1807.61 165.611 1808.2 163.546 1809.07 161.545C1809.56 160.445 1809.75 159.147 1811.81 159.109C1817.79 159.011 1819.8 155.395 1821.63 151.674C1822.47 149.966 1822.42 148.049 1824.33 146.59C1824.35 146.571 1824.36 146.545 1824.38 146.526C1824.64 147.064 1825.09 147.441 1825.67 147.721C1825.69 148.199 1825.88 148.683 1826.31 149.189C1830.43 151.917 1835.31 150.81 1840.16 148.975C1843.12 147.849 1844.9 147.962 1846.15 150.248C1849.38 156.164 1853.14 161.846 1856.29 167.804C1856.55 168.296 1856.75 168.71 1856.9 169.066C1861.68 168.624 1866.52 167.705 1871.04 165.998C1870.95 165.849 1870.86 165.717 1870.79 165.551C1867.23 158.339 1863.37 151.24 1859.55 144.133C1858.26 141.742 1857.42 139.118 1855.17 137.194C1854.8 136.956 1854.39 136.822 1853.89 136.799C1851.52 137.259 1850.84 138.458 1851.68 139.925C1853.94 143.847 1850.3 142.332 1848.58 142.615C1849.99 139.954 1851.36 137.389 1853.87 135.296C1854.22 135.062 1854.55 134.802 1854.85 134.511C1855.23 135.182 1856.3 134.652 1857.08 134.527C1859.86 134.079 1862.57 132.958 1865.4 132.904C1874.92 130.99 1884.44 129.077 1893.96 127.163C1901.32 125.562 1908.7 124.055 1916.04 122.33C1926.14 119.947 1926.13 119.873 1923.73 112.018C1923.7 111.726 1923.67 111.441 1923.64 111.149C1923.39 109.186 1922.89 107.256 1922.94 105.254C1923.03 101.482 1920.88 101.073 1916.95 102.928C1916.38 103.196 1915.85 103.533 1915.31 103.834C1900.46 108.557 1885.61 113.274 1870.76 117.998C1868.61 117.894 1866.45 120.006 1864.31 118.814C1865.92 117.205 1866.76 115.396 1867.34 113.524C1868.72 111.133 1870.1 108.74 1871.47 106.349C1876.16 98.7109 1880.83 91.0671 1886.13 82.4231C1879.9 85.5325 1873.59 86.6535 1870.39 91.1706C1866.73 96.34 1863.95 101.84 1860.78 107.192C1859.01 110.156 1857.24 113.121 1855.46 116.087C1853.61 118.404 1852.16 120.836 1850.98 123.35C1849.06 125.102 1847.54 124.746 1846.23 123.355C1845.59 121.796 1844.07 120.89 1842.48 120.029C1836.32 116.685 1830.63 117.696 1826.27 122.907C1825.26 123.415 1825.51 124.728 1824.1 124.985C1822.02 120.954 1819.48 120.725 1813.9 124.131C1813.54 123.209 1813.32 122.258 1812.84 121.425C1811.25 118.59 1807.78 118.609 1805.03 121.438C1803.45 123.065 1803.2 124.76 1803.5 126.567C1803.95 129.25 1804.19 131.982 1804.52 134.694C1804.2 134.827 1803.89 134.968 1803.59 135.099C1788.35 138.175 1773.29 142.105 1758.26 146.342C1745.08 150.063 1732.11 155.617 1718.29 155.243C1709.98 155.019 1701.6 155.307 1693.15 156.454C1673.73 159.091 1654.31 161.995 1634.89 164.539C1625.3 165.796 1615.7 166.488 1605.33 167.516C1615.64 155.868 1626.67 145.62 1637.45 134.636C1634.19 135.384 1631.72 136.137 1629.24 136.486C1623.51 137.291 1619.69 140.152 1616.09 143.897C1608.57 151.713 1600.7 159.334 1592.92 167.009C1590.93 168.984 1589.02 170.403 1587.52 167.196C1583.35 158.294 1576.45 157.415 1566.36 164.436C1566.41 162.703 1566.11 161.156 1564.14 160.36C1561.8 159.414 1559.45 160.467 1557.04 161.625C1557.32 159.042 1558.09 155.864 1555.04 155.845C1549.82 155.805 1551.55 153.119 1551.79 150.897C1552.42 145.041 1553.16 139.182 1553.88 133.113C1547.47 136.081 1544.54 139.617 1544.53 144.903C1544.52 150.433 1543.39 156.106 1542.66 161.724C1541.61 170.014 1541.55 170.149 1531.53 170.211C1502.57 170.393 1473.8 174.17 1445.29 183.734C1441.46 184.37 1437.61 185.01 1433.78 185.639C1421.72 185.977 1409.87 188.709 1398.32 192.661C1370.67 202.105 1343.58 212.897 1316.47 223.635C1303.28 228.857 1289.93 234.102 1275.66 235.767C1275.13 235.836 1274.6 235.897 1274.06 235.967C1271.06 235.852 1268.04 235.966 1264.97 236.664C1242.03 237.889 1219.04 239.999 1196 243.431C1193.14 243.858 1189.34 245.55 1187.68 244.724C1185.22 243.513 1188.93 240.431 1188.49 238.198C1189.96 234.844 1191.34 231.472 1192.92 228.138C1193.82 226.238 1194.38 224.402 1192.02 223.568C1189.13 222.548 1187.62 224.7 1186.32 226.401C1184.31 229.031 1182.55 231.763 1180.52 234.671C1178.77 231.008 1175.48 230.723 1172.03 233.853C1168.94 236.646 1166.86 239.903 1165.54 243.362C1163.55 243.299 1164.73 241.211 1163.26 240.823C1159.97 236.091 1155.35 234.879 1147.41 237.447C1144.17 238.499 1143.72 237.836 1143.34 235.726C1141.26 224.108 1138.61 212.613 1137.04 200.894C1136.22 194.812 1130.17 193.455 1125.91 190.306C1125.5 191.337 1125.63 192.04 1125.73 192.752C1128.11 209.523 1130.5 226.291 1132.81 243.07C1132.99 244.354 1134.75 246.36 1130.76 246.704C1130.33 246.612 1129.92 246.439 1129.47 246.434C1088.53 246.095 1047.63 245.664 1005.82 251.795C994.761 253.42 983.674 254.178 971.743 255.429C981.799 243.73 992.936 233.604 1003.85 222.421C1000.8 223.121 998.656 223.791 996.516 224.076C990.481 224.874 986.259 227.675 982.399 231.756C974.953 239.616 967.039 247.208 959.245 254.873C956.35 257.713 955.153 257.629 953.829 254.656C952.178 250.971 949.451 248.275 944.274 247.544C939.399 246.851 936.246 249.566 933 252.426C932.162 247.711 929.339 246.798 924.266 249.282C923.715 249.638 923.32 250.05 923.029 250.485C923.171 250.1 923.313 249.708 923.455 249.323C923.606 246.746 924.709 243.622 920.104 243.364C916.722 243.177 914.039 245.93 913.328 249.983C912.993 251.874 912.688 253.759 912.372 255.646C912.198 256.781 911.538 257.905 911.416 259.005C911.416 259.059 911.394 259.109 911.392 259.156C911.163 258.489 910.481 258.064 908.96 258.046C904.88 258.043 900.811 257.983 896.715 258.06C871.476 258.513 846.269 260.857 821.176 268.664C812.765 271.28 804.316 273.315 795.608 273.748C788.924 274.083 782.231 275.423 775.6 277.132C749.118 283.941 723.726 294.022 697.786 302.476C687.283 305.902 677.226 310.994 666.438 313.069C645.217 317.153 624.477 323.178 603.774 329.364C581.505 336.024 559.374 343.158 537.173 350.047C536.068 350.393 534.281 351.791 534.067 349.628C540.976 337.964 547.883 326.292 555.315 313.75C552.022 315.326 549.942 316.563 547.7 317.354C542.574 319.168 539.55 322.183 537.239 326.221C532.061 335.267 526.471 344.209 520.983 353.173C519.018 356.389 517.687 356.618 515.448 354.308C508.584 347.258 500.75 348.019 493.507 356.445C491.384 352.354 488.974 352.143 483.125 355.525C482.142 353.538 482.536 350.056 478.364 350.977C474.724 351.776 474.888 350.222 474.609 348.556C473.575 342.486 472.578 336.406 471.457 329.697C463.971 335.729 463.7 336.228 464.932 342.123C466.334 348.805 467.899 355.451 469.292 362.136C470.293 366.944 470.214 366.946 464.082 368.341C438.404 374.178 413.086 380.934 389.71 393.468C381.833 397.691 374.043 402.193 365.057 404.497C353.104 407.56 342.162 412.717 331.84 418.873C309.664 432.104 288.132 446.067 266.711 460.157C250.625 470.74 234.84 481.942 214.655 486.216C214.371 486.282 214.118 486.539 213.851 486.707C212.693 487.035 211.544 487.353 210.387 487.68C207.368 488.244 204.353 488.838 201.577 490.265C181.996 495.381 162.701 501.387 143.79 508.623C137.325 511.097 137.358 511.174 136.741 506.125C137.854 502.056 136.781 498.115 138.059 494.031C138.683 492.043 138.118 490.312 135.496 490.134C132.694 489.936 131.614 491.9 130.909 493.7C129.754 496.692 128.791 499.715 127.7 502.852C124.498 499.73 121.177 500.203 118.664 504.149C116.51 507.531 115.487 511.081 115.24 514.668C114.536 514.118 113.843 513.565 113.14 513.015C108.706 508.537 102.589 508.015 95.3289 512.272C91.8019 514.339 91.3324 513.122 90.2724 511.261C84.82 501.75 78.6483 492.535 73.998 482.695C71.1176 476.604 65.0737 474.932 57.8742 473.066C58.3387 474.253 58.5741 475.072 58.9646 475.816C65.9719 489.264 73.0147 502.689 80.0125 516.139C81.2154 518.442 83.841 521.123 82.9301 523.101C81.8667 525.405 76.9507 524.645 73.9048 525.935C71.82 526.077 69.7538 526.33 67.783 527.274C58.2924 528.384 48.9673 530.896 39.6163 533.077C21.8439 536.812 4.03014 540.358 -13.3764 546.045C-14.9648 546.388 -16.552 546.737 -18.1309 547.077L-14.9265 566.246C1.44155 562.069 17.5052 556.836 33.5882 551.659L33.6446 551.585ZM1838.34 137.834L1838.37 137.827L1838.37 137.842L1838.34 137.834ZM1262.64 240.148C1262.64 240.148 1262.69 240.098 1262.72 240.067C1262.73 240.089 1262.73 240.111 1262.73 240.134L1262.63 240.158L1262.64 240.148ZM963.997 262.967C964.173 262.781 964.369 262.599 964.557 262.425C964.515 262.588 964.496 262.768 964.471 262.973C964.313 262.971 964.147 262.979 963.988 262.97L963.997 262.967ZM921.686 254.185C920.945 256.53 920.038 258.829 919.138 260.988C919.986 258.81 920.836 256.525 921.686 254.185ZM528.123 359.218C528.834 360.172 530.106 360.117 531.734 359.719C530.52 360.06 529.309 360.423 528.115 360.82C528.32 360.282 528.161 359.745 528.123 359.218ZM582.727 346.109C584.126 345.695 585.524 345.274 586.911 344.848C585.515 345.277 584.126 345.695 582.727 346.109ZM588.176 344.458C589.769 343.961 591.358 343.45 592.937 342.934C591.349 343.453 589.769 343.961 588.176 344.458ZM600.621 340.271C601.442 339.876 602.313 339.607 603.198 339.357C602.555 339.581 601.924 339.811 601.281 340.035C601.068 340.115 600.844 340.189 600.631 340.269L600.621 340.271ZM613.476 335.707C619.553 333.452 625.634 331.219 631.73 329.021C625.649 331.254 619.571 333.502 613.476 335.707ZM654.693 320.793C652.21 321.678 647.892 322.785 643.85 324.718C643.755 324.74 643.672 324.774 643.578 324.796C643.679 324.757 643.783 324.726 643.875 324.689C647.936 322.814 652.191 321.56 654.692 320.785L654.693 320.793ZM557.463 353.121C555.032 353.787 552.602 354.461 550.186 355.155C547.806 355.832 545.41 356.414 543.011 356.973C545.243 356.414 547.464 355.849 549.687 355.239C552.278 354.528 554.87 353.825 557.473 353.126L557.463 353.121ZM472.984 374.264L473.203 374.214L473.153 374.386C473.097 374.345 473.039 374.297 472.984 374.264ZM63.6818 532.389C63.7536 532.465 63.8454 532.543 63.9468 532.619L63.3018 532.768C63.428 532.639 63.5555 532.518 63.6723 532.391L63.6818 532.389ZM48.0365 531.753C47.3037 531.968 46.571 532.182 45.8394 532.404L45.816 532.264L48.0365 531.753Z"
              fill="white"/>
    </g>
    <defs>
        <clipPath id="clip0_1_281">
            <rect width="1918" height="599" fill="white"/>
        </clipPath>
    </defs>
</svg>
