<svg width="841" height="732" viewBox="0 0 841 732" fill="none" xmlns="http://www.w3.org/2000/svg">
<g clip-path="url(#clip0_2469_1690)">
<path d="M443.066 0.217773L443.487 0.404631V0.217773H443.066Z" stroke="black" stroke-width="0.28" stroke-miterlimit="10"/>
<path d="M591.971 321.271C591.659 319.854 590.102 317.518 589.168 316.569C580.29 307.023 575.774 296.995 576.085 283.993C576.085 281.953 576.241 279.758 575.462 277.889C570.323 265.198 563.938 294.644 563.003 296.995C558.331 307.958 550.232 319.076 540.732 325.958C538.708 327.375 521.576 338.96 523.445 340.673C524.068 341.14 528.273 341.296 532.945 340.05C538.552 338.478 549.454 334.102 554.126 332.374C560.511 330.022 584.963 326.893 587.766 326.737C590.569 326.581 592.594 324.074 591.971 321.256V321.271Z" fill="#262626"/>
<path d="M762.756 311.647H756.309C756.822 321.971 757.383 332.934 750.297 339.52C746.403 343.258 739.395 344.036 734.256 345.593C718.214 350.42 701.862 353.69 685.197 355.715C680.837 356.182 676.32 356.805 672.738 359.14C669.156 361.476 666.82 366.459 668.845 370.352C670.246 372.843 672.894 374.089 675.541 375.023C691.738 380.629 709.649 374.868 724.288 366.148C735.424 359.514 745.578 351.261 756.511 344.332L754.969 342.79L762.756 335.005V311.647Z" fill="#333333"/>
<path d="M546.385 24.7901L545.871 25.2105C533.677 34.9116 516.919 33.1831 501.688 27.9667L513.944 15.7119H521.731L529.518 23.4977H545.092L546.385 24.7901Z" fill="#333333"/>
<path d="M490.583 23.4973C480.149 18.6701 469.963 13.1578 459.653 7.92578H482.796V15.7115L490.583 23.4973Z" fill="#333333"/>
<path d="M755.343 591.857V584.071L739.769 568.5V545.143L747.556 537.357L747.167 536.968C740.921 532.903 735.159 528.139 730.113 522.408C714.85 504.968 706.129 482.701 711.891 460.122C713.449 453.894 718.432 444.862 719.367 438.322C719.678 436.298 719.678 434.118 718.432 432.405C716.564 429.758 712.67 429.914 709.4 430.381C693.514 432.405 677.005 432.716 661.743 427.734C646.636 422.751 630.127 407.646 615.955 415.121C609.725 418.391 606.611 425.242 604.275 431.782C598.045 448.911 593.684 466.662 591.348 484.57C591.037 487.84 590.569 491.11 591.66 494.224C593.061 498.584 597.11 501.542 600.848 504.034C611.439 511.041 622.963 517.114 634.8 521.785C647.415 526.768 660.497 530.35 672.645 536.267C688.997 544.208 703.17 555.887 717.498 566.943C732.309 578.388 747.509 589.381 763.13 599.674V599.643L755.343 591.857ZM717.031 519.138C714.539 528.637 710.022 533.308 700.678 535.021C690.088 536.89 665.636 525.678 656.136 520.695C643.677 514.311 629.972 510.885 617.512 504.345C612.529 501.698 607.701 498.428 603.184 494.847C601.627 493.601 600.069 492.2 599.291 490.331C598.356 488.151 598.512 485.815 598.668 483.635C599.447 473.202 601.315 462.925 604.119 453.271C607.545 441.592 612.996 418.391 628.57 421.972C636.669 423.685 644.144 428.668 652.087 431.315C660.653 434.118 669.686 438.167 678.719 438.789C687.44 439.568 692.891 438.789 698.809 445.485C704.416 451.714 699.744 457.008 698.965 465.572C698.498 471.022 698.653 479.275 700.055 484.414C702.547 493.912 719.523 509.64 717.031 519.138Z" fill="#3F3F3F"/>
<path d="M763.13 599.674V607.428H750.639C747.649 605.482 744.659 603.52 741.684 601.558L739.769 599.642H738.756C728.867 593.149 719.008 586.671 709.088 580.178C686.35 565.229 663.3 550.281 638.381 539.225C618.914 530.661 597.422 523.965 584.184 507.459C581.692 504.345 579.511 500.919 579.044 497.026C578.577 493.445 579.511 489.864 580.446 486.282C584.184 472.112 588.077 458.098 591.815 443.928C594.307 434.896 596.799 425.553 602.561 418.235C608.323 410.916 617.979 405.622 627.012 408.113C652.242 415.12 675.448 431.47 701.145 426.02C711.58 423.84 721.858 419.169 732.449 419.948C733.383 419.948 734.318 420.103 734.941 420.726C736.031 421.505 736.187 422.906 736.342 424.152C736.81 430.069 734.941 436.142 731.359 440.813C728.711 444.239 725.129 446.886 722.326 450.312C714.071 460.122 713.76 474.603 717.186 486.905C721.095 500.748 729.163 513.283 739.769 523.078V529.571L747.166 536.967C740.921 532.903 735.159 528.138 730.113 522.408C714.85 504.968 706.129 482.701 711.891 460.122C713.448 453.893 718.432 444.862 719.367 438.322C719.678 436.298 719.678 434.118 718.432 432.405C716.563 429.758 712.67 429.913 709.399 430.38C693.514 432.405 677.005 432.716 661.743 427.733C646.636 422.75 630.127 407.646 615.955 415.12C609.725 418.39 606.61 425.242 604.274 431.782C598.045 448.91 593.684 466.662 591.348 484.569C591.036 487.839 590.569 491.109 591.659 494.224C593.061 498.584 597.11 501.542 600.848 504.034C611.438 511.041 622.963 517.114 634.799 521.785C647.414 526.768 660.497 530.349 672.644 536.267C688.997 544.208 703.17 555.887 717.498 566.942C732.309 578.387 747.509 589.381 763.13 599.674Z" fill="#333333"/>
<path d="M739.769 508.441V515.697C731.982 508.191 725.737 498.771 723.727 488.151C723.323 486.049 723.12 483.915 723.104 481.767L731.982 490.642V498.428L736.093 502.539C737.121 504.61 738.352 506.603 739.769 508.441Z" fill="#333333"/>
<path d="M841 397.213V412.784L794.278 459.499H783.064C788.017 454.376 792.331 448.474 796.458 442.682C801.909 435.207 807.36 427.577 812.811 419.947C818.9 411.352 825.722 402.305 834.599 397.213H841Z" fill="#333333"/>
<path d="M834.599 397.213C825.722 402.305 818.901 411.352 812.811 419.947C807.36 427.577 801.909 435.207 796.459 442.682C792.331 448.474 788.017 454.376 783.065 459.499H770.917L769.733 458.315C781.118 452.943 789.076 438.446 796.459 427.266C805.227 413.968 813.574 399.72 826.407 390.408L833.213 397.213H834.599Z" fill="#333333"/>
<path d="M765.543 350.498C761.65 352.491 758.052 354.5 756.277 355.948C752.695 358.751 748.334 362.955 743.662 369.184C732.449 383.977 713.292 383.977 695.382 387.714C677.472 391.451 638.225 395.967 627.168 362.332C615.955 328.698 593.061 310.324 588.077 304.095C583.093 297.867 579.667 264.076 588.077 246.481C594.618 232.778 600.848 194.316 600.38 193.07C599.913 191.825 600.848 162.706 605.987 145.733C611.282 128.76 600.848 112.254 592.593 99.953C584.339 87.6515 580.601 79.3986 588.077 67.8757C593.684 59.3114 616.733 49.9685 628.258 48.2556C629.379 48.0843 630.454 47.8819 631.513 47.6172L638.537 54.6399H646.324L651.09 59.4048C649.641 60.9775 648.302 62.6437 647.103 64.45C643.209 70.2114 639.471 78.7757 629.971 83.1357C610.971 91.8558 613.463 111.632 613.463 111.632C613.463 111.632 623.43 164.73 623.43 177.966C623.43 191.202 630.438 222.968 625.922 242.743C621.405 262.519 623.119 270.772 627.635 282.295C632.152 293.818 650.685 318.265 652.398 323.559C653.955 329.009 661.431 341.311 670.464 346.294C679.497 351.277 699.276 350.031 713.292 343.802C727.309 337.574 732.604 339.287 732.604 339.287C732.604 339.287 743.818 341.311 747.088 333.058C750.234 325.49 750.748 313.329 749.487 305.715L755.342 311.569H756.682C757.196 321.893 757.756 332.856 750.67 339.442C746.777 343.18 739.768 343.958 734.629 345.515C718.588 350.342 702.235 353.612 685.571 355.637C681.21 356.104 676.693 356.727 673.111 359.062C669.529 361.398 667.193 366.381 669.218 370.274C670.62 372.765 673.267 374.011 675.915 374.945C692.112 380.551 710.022 374.79 724.661 366.07C735.797 359.436 745.951 351.183 756.884 344.254L763.129 350.498H765.543Z" fill="#3F3F3F"/>
<path d="M817.639 381.642V366.071L809.852 358.285H803.669C803.607 358.378 803.529 358.487 803.466 358.596C797.86 367.316 794.745 374.012 776.835 385.846C745.531 406.401 726.375 404.376 709.087 408.736C677.939 416.522 619.381 402.975 613.463 372.922C606.454 337.575 599.29 332.436 587.143 332.125C569.077 331.502 542.912 341.623 517.526 351.901C493.075 361.866 483.419 364.669 480.772 361.243C478.747 358.596 479.37 351.278 487.001 349.253C499.461 345.828 521.108 333.37 536.527 314.217C551.945 295.065 573.593 243.212 571.724 230.754C569.855 218.297 569.388 183.728 584.028 163.953C598.667 144.177 591.503 131.097 588.388 120.664C585.274 110.231 561.757 100.888 550.076 86.0952C544.158 78.4652 543.847 68.3437 545.093 60.0909C545.202 59.2967 545.762 57.9731 546.681 56.2291L545.093 54.6408V46.8551L552.88 39.0693V31.2836L546.385 24.7903L545.871 25.2107C533.677 34.9118 516.919 33.1833 501.688 27.9669L498.37 31.2836H490.583V23.4979C480.149 18.6707 469.963 13.1584 459.653 7.92637H459.435L451.648 15.7121L443.861 7.92637V0.327483L443.441 0.140625H428.287L412.713 15.7121V15.8523C436.121 23.965 459.388 32.2179 482.796 40.3151C487.624 42.0279 492.452 43.7408 496.501 46.8551C500.706 50.1251 503.665 54.7965 506.625 59.468C517.526 76.9081 528.584 94.5038 539.486 111.944C543.847 118.795 548.207 125.803 550.855 133.433C558.798 155.388 553.035 179.991 543.691 201.48C534.346 222.969 521.576 242.9 515.19 265.323C508.805 287.746 507.87 313.75 490.895 329.789C478.747 341.312 460.837 344.893 447.599 355.015C444.173 357.662 440.902 361.088 440.435 365.292C439.656 371.365 444.64 376.348 449.156 380.396C459.747 389.739 470.804 398.459 482.173 406.712C501.485 396.124 522.043 387.871 542.756 380.396C552.724 376.815 563.937 373.701 573.749 377.749C583.249 381.642 589.167 391.764 590.88 402.041C592.438 412.318 590.569 422.595 588.7 432.872C585.741 447.821 582.626 462.925 575.929 476.628C571.413 485.66 565.339 495.625 568.454 505.124C570.79 512.443 577.954 517.114 584.651 521.163C627.791 547.167 669.997 574.417 711.579 603.069C713.402 604.33 715.239 605.56 717.093 606.743L724.194 599.643H738.756C728.867 593.15 719.008 586.672 709.087 580.179C686.349 565.23 663.3 550.281 638.381 539.226C618.914 530.661 597.421 523.965 584.183 507.46C581.692 504.345 579.511 500.92 579.044 497.027C578.577 493.445 579.511 489.864 580.446 486.282C584.183 472.112 588.077 458.098 591.815 443.928C594.307 434.897 596.798 425.554 602.561 418.235C608.323 410.916 617.979 405.622 627.012 408.114C652.242 415.121 675.448 431.471 701.145 426.021C711.579 423.841 721.858 419.169 732.449 419.948C733.383 419.948 734.318 420.104 734.94 420.727C736.031 421.505 736.186 422.907 736.342 424.152C736.809 430.069 734.94 436.142 731.358 440.814C728.711 444.239 725.129 446.887 722.325 450.312C714.071 460.122 713.76 474.604 717.186 486.905C721.095 500.748 729.163 513.283 739.768 523.078V515.697C731.981 508.192 725.736 498.771 723.727 488.151C723.322 486.049 723.12 483.916 723.104 481.767L716.407 475.071V467.285L724.194 459.499V451.714L731.981 443.928H755.343L755.716 444.302L756.277 443.928C756.277 443.928 780.417 433.339 792.097 417.924C799.729 407.958 808.606 395.968 814.057 388.649C814.726 387.73 816.564 385.878 819.57 383.573L817.639 381.642ZM551.634 209.266C557.24 197.899 563.781 186.531 566.273 174.074C569.077 160.06 562.535 138.883 568.609 126.27C575.15 112.411 588.7 128.294 588.233 139.038C587.766 148.848 581.692 157.413 577.175 166.288C560.822 197.899 563.158 236.049 550.543 269.372C546.806 279.182 541.978 288.369 535.904 296.777C530.764 304.096 521.42 311.415 513.789 306.587C524.846 273.576 535.904 240.409 551.634 209.266Z" fill="#2D2D2D"/>
<path d="M654.111 698.427V724.214L646.324 732L630.75 716.428V708.642L617.31 695.204L617.201 694.472C617.201 694.472 617.824 674.385 612.84 661.149C607.856 647.914 587.921 650.405 587.921 650.405C587.921 650.405 572.503 659.748 523.912 659.748C501.641 659.748 487.313 664.731 478.28 670.025C473.764 672.672 470.649 675.475 468.468 677.811C467.877 678.449 466.74 681.237 465.276 685.285H459.435L451.648 677.499V669.714H443.861L428.287 685.285H412.713L406.219 691.778C408.384 687.948 410.844 684.304 413.648 680.925C420.967 672.205 430.468 665.509 440.279 659.592C465.821 644.332 495.256 633.743 525.002 635.612C547.117 637.013 568.921 645.266 590.881 643.086C598.512 642.308 606.299 640.283 613.93 641.685C622.652 643.242 630.127 649.159 635.422 656.166C640.188 662.488 643.443 669.932 646.433 677.39L646.324 677.499V685.285L651.479 690.439C652.429 693.086 653.333 695.749 654.111 698.427Z" fill="#6D6D6D"/>
<path d="M661.898 653.146V654.142L654.111 661.928V669.714L646.433 677.39C643.443 669.932 640.188 662.489 635.422 656.167C630.127 649.159 622.651 643.242 613.93 641.685C606.299 640.284 598.512 642.308 590.88 643.087C568.921 645.267 547.117 637.014 525.002 635.612C495.255 633.744 465.82 644.332 440.279 659.592C430.467 665.509 420.967 672.205 413.647 680.925C410.844 684.304 408.383 687.948 406.218 691.779L404.926 693.071H397.139V677.5H365.991L358.204 669.714V661.928L350.417 654.142H332.07C336.914 647.275 343.844 642.479 353.531 640.907C362.564 639.505 373.155 638.415 384.368 638.882C415.36 640.128 435.14 615.369 459.747 614.124C484.509 612.878 522.51 612.878 555.527 625.179C588.544 637.481 596.487 634.522 613.463 630.474C623.913 627.982 646.246 641.997 661.898 653.146Z" fill="#595959"/>
<path d="M673.439 627.033L661.898 638.571V653.146C646.247 641.997 623.913 627.983 613.463 630.474C596.487 634.523 588.545 637.481 555.528 625.18C522.511 612.878 484.51 612.878 459.747 614.124C435.14 615.37 415.361 640.128 384.368 638.883C373.155 638.415 362.565 639.505 353.532 640.907C343.845 642.48 336.914 647.276 332.071 654.143H319.269L311.482 646.357H295.908L288.121 638.571H277.78C277.328 636.967 277.032 635.846 276.907 635.301C274.104 622.221 282.67 599.02 286.719 589.365C291.391 577.998 302.449 571.302 316.466 569.589C330.482 567.877 352.753 562.115 371.753 577.064L390.754 591.857C390.754 591.857 405.549 600.11 425.328 589.365C445.107 578.621 465.354 560.714 479.993 563.984C494.633 567.254 525.158 563.828 536.683 571.302C548.208 578.777 551.478 592.947 568.766 599.954C586.053 606.805 613.307 594.815 628.881 599.954C639.487 603.426 660.746 617.939 673.439 627.033Z" fill="#4F4F4F"/>
<path d="M116.027 581.424C110.42 588.275 86.9033 591.701 79.5835 594.348C67.903 598.817 54.3847 607.303 46.1304 614.622L38.9352 607.428V599.642H31.1481L15.5741 584.071H7.78704L0 576.285L7.78704 568.499V560.713L15.5741 552.928V545.142L31.1481 529.57H46.7222L54.5093 521.785H70.0833V508.3C76.4843 507.692 92.51 509.187 99.2069 511.507C103.879 513.065 110.264 518.359 102.945 530.66C95.6248 542.962 102.945 551.059 108.551 556.665C114.158 562.271 121.478 574.572 116.027 581.424Z" fill="#848484"/>
<path d="M171.689 623H171.315L163.528 630.785H147.502C145.12 626.737 142.005 623.015 137.987 620.041C131.134 615.058 115.404 607.584 102.322 605.404C87.0127 602.741 49.4948 627.064 38.9355 634.164V630.785L46.7226 623V615.214L46.1308 614.622C54.385 607.303 67.9033 598.817 79.5839 594.348C86.9037 591.701 110.421 588.275 116.027 581.424C121.478 574.572 114.158 562.271 108.552 556.665C102.945 551.059 95.6252 542.962 102.945 530.661C110.265 518.359 103.879 513.065 99.2072 511.508C92.5104 509.188 76.4846 507.693 70.0837 508.3V481.642C74.8182 487.076 85.393 497.151 95.4694 492.978L109.019 487.372C109.019 487.372 131.913 483.012 138.765 494.223C145.618 505.279 151.069 513.999 142.503 525.678C133.937 537.356 126.462 545.454 128.954 549.814C131.446 554.174 142.192 552.305 147.02 556.042C151.848 559.779 153.872 579.555 147.02 589.988C140.167 600.577 138.921 602.289 145.618 606.027C149.979 608.362 160.258 610.542 168.045 613.501C169.166 613.937 170.474 617.627 171.689 623Z" fill="#6D6D6D"/>
<path d="M216.558 630.786H194.676L186.889 623H171.689C170.474 617.628 169.166 613.937 168.045 613.501C160.258 610.543 149.979 608.363 145.618 606.027C138.921 602.29 140.167 600.577 147.02 589.988C153.872 579.555 151.848 559.78 147.02 556.042C142.192 552.305 131.445 554.174 128.954 549.814C126.462 545.454 133.937 537.357 142.503 525.678C151.069 513.999 145.618 505.279 138.765 494.224C131.913 483.012 109.019 487.372 109.019 487.372L95.4694 492.978C85.3929 497.151 74.8181 487.076 70.0836 481.642V467.285L62.2966 459.499V436.142L54.5095 428.356V412.785L46.7225 404.999V389.428L38.9355 381.642V350.499L31.1484 342.713V327.142H38.9355L46.7225 334.927H62.2966L70.0836 327.142H82.6675C73.5566 339.661 65.6917 351.947 64.7884 358.129C62.6081 373.7 61.6736 382.576 60.7392 386.313C59.8047 390.05 59.4933 400.328 73.0427 406.4C86.5921 412.473 113.847 425.865 112.912 438.789C111.978 451.869 111.355 461.991 129.888 467.596C148.577 473.202 159.635 493.912 160.258 497.961C160.88 502.009 163.372 530.972 173.807 536.89C184.242 542.807 194.832 553.862 188.914 566.942C182.996 580.023 178.791 586.095 192.963 597.307C204.145 606.198 211.605 618.266 216.558 630.786Z" fill="#595959"/>
<path d="M147.502 630.785H109.019V654.143L77.8707 685.286H70.0836V677.5L62.2966 669.714H46.7225L38.9355 677.5V693.071L31.1484 685.286V661.928L38.9355 654.143V634.164C49.4947 627.064 87.0126 602.741 102.322 605.404C115.404 607.584 131.134 615.058 137.987 620.041C142.005 623.015 145.119 626.737 147.502 630.785Z" fill="#848484"/>
<path d="M253.25 630.786H233.611L225.824 623L218.037 630.786H216.558C211.605 618.266 204.145 606.198 192.963 597.307C178.79 586.095 182.995 580.023 188.914 566.943C194.832 553.862 184.241 542.807 173.807 536.89C163.372 530.972 160.88 502.009 160.257 497.961C159.634 493.912 148.577 473.202 129.888 467.596C111.355 461.991 111.978 451.869 112.912 438.789C113.847 425.865 86.5919 412.473 73.0424 406.4C59.493 400.328 59.8045 390.05 60.7389 386.313C61.6734 382.576 62.6078 373.7 64.7882 358.129C65.6915 351.947 73.5564 339.661 82.6672 327.142H85.6574L93.4445 334.927H109.019L116.806 327.142H124.593L132.38 319.356L140.167 327.142L147.954 319.356V303.784L155.741 295.999H171.315L186.889 280.427H194.676L202.463 272.641L210.25 280.427V288.213L202.743 295.282C202.712 295.096 202.665 294.924 202.619 294.753C200.75 288.369 177.233 300.67 177.233 300.67C175.364 303.784 165.552 311.726 171.626 317.954C177.7 324.183 193.274 323.56 197.012 317.954C200.345 312.956 203.693 303.473 203.024 296.964L210.25 303.784H218.037L225.824 295.999H233.611V280.427L225.824 272.641H218.037L210.25 264.856L218.037 257.07V241.498L224.173 235.363C233.455 261.57 240.059 286.843 237.505 300.826C236.414 306.587 233.455 315.307 219.594 324.806C194.364 342.09 195.299 335.395 186.11 334.149C176.922 332.903 149.2 322.782 132.535 336.64C115.871 350.499 116.494 374.168 120.232 388.805C123.97 403.442 137.052 411.228 138.765 430.069C141.724 461.991 170.38 467.441 177.7 477.874C185.643 489.085 190.627 510.574 194.987 520.695C199.348 530.817 199.348 564.295 208.537 575.974C217.726 587.653 248.095 603.224 252.456 625.491C252.456 625.491 252.798 627.516 253.25 630.786Z" fill="#4F4F4F"/>
<path d="M684.948 615.525L678.796 621.676C640.779 583.557 585.741 560.589 532.477 546.388C508.338 540.003 482.173 533.775 465.509 515.245C455.386 504.189 449.935 489.707 441.525 477.25C418.787 444.083 375.179 425.709 363.343 387.403C353.687 355.948 380.786 341.311 407.262 322.002C418.631 313.75 431.246 295.375 439.033 282.918C450.246 265.167 451.959 240.875 456.164 220.321C458.345 210.044 460.214 199.299 458.033 189.022C456.632 182.326 451.181 172.205 442.926 165.976C399.008 133.587 357.892 137.48 327.055 138.103C322.85 138.212 318.63 137.948 314.394 137.371L319.268 132.497H327.055L319.268 124.712H295.907L288.12 116.926L288.712 116.334C299.676 121.006 311.076 123.264 322.85 122.376C338.736 121.13 377.36 111.009 393.868 115.369C419.41 121.909 460.681 146.356 460.681 146.356C460.681 146.356 490.427 168.623 492.452 185.908C494.477 203.192 474.698 224.214 474.698 224.214C474.698 224.214 463.951 243.522 462.394 265.011C460.837 286.5 443.082 293.04 438.41 303.317C433.893 313.594 437.164 316.552 423.615 326.051C410.065 335.55 393.557 349.097 395.581 374.634C397.606 400.171 439.344 434.584 439.344 434.584C439.344 434.584 459.123 449.844 477.657 446.73C496.19 443.616 514.1 436.297 528.272 436.141C537.928 435.986 561.289 436.609 558.486 450.623C555.527 464.637 478.435 468.997 474.853 497.96C474.853 497.96 465.353 509.483 496.346 518.515C527.338 527.546 568.921 537.823 579.2 547.01C589.478 556.198 606.766 570.056 627.479 573.326C639.16 575.195 656.291 588.275 668.906 599.175C674.669 604.158 679.341 608.674 682.3 611.476C682.518 611.679 683.452 613.127 684.948 615.525Z" fill="#4F4F4F"/>
<path d="M197.012 317.954C193.274 323.56 177.7 324.183 171.626 317.954C165.552 311.726 175.364 303.784 177.233 300.67C177.233 300.67 200.749 288.368 202.618 294.753C202.665 294.924 202.712 295.095 202.743 295.282L201.995 295.998L203.023 296.964C203.693 303.473 200.345 312.956 197.012 317.954Z" fill="#3F3F3F"/>
<path d="M705.318 611.913L700.833 607.428H691.738C672.519 588.602 651.759 571.66 627.946 559.312C595.708 542.651 559.732 532.062 530.141 511.041C519.239 503.255 524.223 495.158 525.936 492.822C537.305 477.718 556.929 475.538 566.429 459.343C574.216 446.107 574.839 428.045 569.232 413.252C567.052 407.646 561.445 404.064 555.371 404.22C534.19 404.843 513.165 411.227 495.1 422.127C483.419 429.134 468.624 428.045 458.189 419.48L431.557 397.68C421.123 389.116 409.754 378.839 413.491 363.734C414.737 358.751 417.541 354.391 420.967 350.654C431.246 339.754 445.574 335.706 457.255 327.297C478.747 311.881 488.247 285.098 496.501 260.028C504.444 235.737 512.543 211.601 520.485 187.309C526.403 169.558 532.01 149.315 523.133 132.965C514.723 117.705 496.034 110.698 486.067 96.3718C481.55 89.6761 478.747 81.7346 473.296 75.9732C463.64 65.696 447.754 64.606 433.893 66.786C420.032 69.1217 406.483 74.1046 392.466 73.7932C372.718 73.326 355.322 62.5661 340.963 48.5206L342.629 46.8545H358.203L365.99 54.6402H389.352V52.1955C394.553 53.6592 399.926 54.2198 405.393 53.5502C416.762 52.1488 433.115 52.3045 443.705 50.4359C477.968 44.3631 477.034 46.0759 491.829 63.3603C506.624 80.6446 499.305 87.9632 505.846 95.4375C512.387 102.912 533.879 116.926 536.371 125.958C538.863 134.989 555.215 155.699 539.641 182.015C524.067 208.331 526.403 204.594 522.354 221.567C518.305 238.384 513.788 239.63 507.559 264.388C501.329 289.147 500.083 299.113 490.583 310.168C481.083 321.38 481.55 327.92 465.82 333.681C450.09 339.443 432.336 344.426 425.795 354.703C419.098 364.98 416.295 374.946 426.574 380.707C437.008 386.469 452.582 395.656 456.32 403.442C460.058 411.227 463.796 418.702 473.296 419.48C482.796 420.414 510.829 404.687 518.616 400.172C526.559 395.656 551.633 383.666 561.134 383.666C570.634 383.666 581.536 386.624 583.872 414.653C585.273 430.692 581.068 446.107 577.331 456.385C574.527 463.859 569.855 470.555 563.625 475.693L555.838 482.545C550.855 486.905 545.715 491.109 540.109 494.69C535.436 497.805 529.83 504.033 541.822 511.819C559.576 523.342 592.282 533.931 636.045 558.066C672.644 578.309 686.816 596.372 700.833 606.805L705.318 611.913Z" fill="#3F3F3F"/>
<path d="M733.508 297.525L724.194 288.213H716.407V258.409C717.918 260.869 719.896 263.19 722.481 265.323C726.063 268.282 729.022 272.019 731.826 275.912C736.077 282.202 736.451 290.595 733.508 297.525Z" fill="#4F4F4F"/>
<path d="M677.473 179.212H683.905C680.198 188.866 677.659 196.45 669.81 202.694L669.686 202.569V194.783L677.473 186.998V179.212Z" fill="#4F4F4F"/>
<path d="M685.259 171.426L688.576 168.109C688.405 168.499 688.233 168.888 688.062 169.246C687.003 171.504 686.1 173.684 685.259 175.755V171.426Z" fill="#4F4F4F"/>
<path d="M691.738 607.428H687.346C683.048 602.834 678.531 598.443 673.735 594.348C629.193 556.198 561.601 537.823 510.518 507.926C504.756 504.656 503.51 501.697 504.756 495.313C505.535 490.797 513.945 488.617 517.838 486.126C530.92 477.717 548.675 471.333 557.864 458.876C566.897 446.419 570.946 429.134 549.142 418.857C535.904 414.653 496.813 442.837 468.78 438.477C440.746 434.117 436.386 412.006 417.074 391.296C412.557 386.468 403.836 370.897 405.549 364.824C408.352 354.703 416.607 346.917 424.238 339.598C458.968 305.964 488.403 264.855 499.149 217.829C509.895 170.803 499.461 117.082 464.575 83.6031C429.222 68.0316 386.549 103.067 351.351 87.3402C340.605 82.5131 332.6 73.7307 324.688 64.7927L340.963 48.5205C355.323 62.566 372.719 73.3259 392.467 73.793C406.484 74.1045 420.033 69.1216 433.894 66.7859C447.755 64.6059 463.64 65.6959 473.296 75.973C478.747 81.7345 481.551 89.6759 486.067 96.3717C496.034 110.697 514.723 117.705 523.133 132.965C532.011 149.315 526.404 169.558 520.486 187.309C512.543 211.601 504.444 235.736 496.502 260.028C488.247 285.098 478.747 311.881 457.255 327.297C445.574 335.705 431.246 339.754 420.967 350.654C417.541 354.391 414.738 358.751 413.492 363.734C409.754 378.838 421.123 389.116 431.558 397.68L458.189 419.48C468.624 428.044 483.419 429.134 495.1 422.127C513.166 411.227 534.191 404.843 555.372 404.22C561.446 404.064 567.052 407.646 569.233 413.251C574.839 428.044 574.216 446.107 566.429 459.343C556.929 475.537 537.306 477.717 525.937 492.822C524.224 495.157 519.24 503.255 530.142 511.04C559.732 532.062 595.709 542.65 627.947 559.312C651.76 571.66 672.52 588.602 691.738 607.428Z" fill="#4F4F4F"/>
<path d="M717.092 606.743L716.407 607.428V615.214H708.62L705.318 611.912L700.833 606.805C686.816 596.372 672.644 578.309 636.045 558.066C592.282 533.93 559.576 523.342 541.822 511.819C529.83 504.033 535.436 497.805 540.109 494.69C545.715 491.109 550.855 486.905 555.838 482.545L563.625 475.693C569.855 470.555 574.527 463.859 577.331 456.384C581.068 446.107 585.273 430.692 583.872 414.653C581.536 386.624 570.634 383.666 561.134 383.666C551.633 383.666 526.559 395.656 518.616 400.171C510.829 404.687 482.796 420.414 473.296 419.48C463.796 418.702 460.058 411.227 456.32 403.441C452.582 395.656 437.008 386.469 426.574 380.707C416.295 374.946 419.098 364.98 425.795 354.703C432.336 344.425 450.09 339.443 465.82 333.681C481.55 327.92 481.083 321.38 490.583 310.168C500.083 299.112 501.329 289.147 507.559 264.388C513.788 239.629 518.305 238.384 522.354 221.566C526.403 204.594 524.067 208.331 539.641 182.015C555.215 155.699 538.863 134.989 536.371 125.958C533.879 116.926 512.387 102.912 505.846 95.4374C499.305 87.9631 506.624 80.6445 491.829 63.3602C477.034 46.0758 477.968 44.363 443.705 50.4358C433.115 52.3044 416.762 52.1487 405.393 53.5501C399.926 54.2197 394.553 53.6591 389.352 52.1954V39.0686L397.139 31.2829H404.926L412.713 23.4972V15.8516C436.121 23.9643 459.388 32.2172 482.796 40.3144C487.624 42.0272 492.452 43.7401 496.501 46.8544C500.706 50.1244 503.665 54.7958 506.624 59.4673C517.526 76.9074 528.584 94.5031 539.486 111.943C543.846 118.795 548.207 125.802 550.855 133.432C558.798 155.388 553.035 179.991 543.691 201.479C534.346 222.968 521.575 242.899 515.19 265.322C508.805 287.745 507.87 313.75 490.895 329.788C478.747 341.311 460.837 344.893 447.599 355.014C444.172 357.661 440.902 361.087 440.435 365.291C439.656 371.364 444.64 376.347 449.156 380.396C459.746 389.738 470.804 398.459 482.173 406.711C501.485 396.123 522.043 387.87 542.756 380.396C552.724 376.814 563.937 373.7 573.749 377.748C583.249 381.641 589.167 391.763 590.88 402.04C592.437 412.317 590.569 422.594 588.7 432.872C585.741 447.82 582.626 462.924 575.929 476.627C571.412 485.659 565.339 495.625 568.453 505.123C570.79 512.442 577.954 517.113 584.65 521.162C627.791 547.166 669.996 574.416 711.579 603.068C713.401 604.329 715.239 605.559 717.092 606.743Z" fill="#333333"/>
<path d="M588.233 139.038C587.766 148.848 581.692 157.412 577.176 166.288C560.823 197.898 563.159 236.048 550.544 269.371C546.806 279.181 541.978 288.368 535.904 296.777C530.765 304.096 521.42 311.414 513.789 306.587C524.847 273.576 535.904 240.408 551.634 209.265C557.241 197.898 563.782 186.531 566.274 174.074C569.077 160.059 562.536 138.882 568.61 126.269C575.151 112.411 588.7 128.294 588.233 139.038Z" fill="#262626"/>
<path d="M826.408 390.408C813.575 399.72 805.227 413.968 796.459 427.266C789.076 438.446 781.118 452.943 769.733 458.315L755.717 444.301L756.277 443.927C756.277 443.927 780.417 433.339 792.098 417.923C799.729 407.957 808.606 395.967 814.057 388.649C814.727 387.73 816.565 385.877 819.57 383.572L826.408 390.408Z" fill="#333333"/>
<path d="M700.055 484.414C698.653 479.275 698.497 471.022 698.965 465.572C699.743 457.008 704.416 451.714 698.809 445.485C692.891 438.789 687.44 439.568 678.718 438.789C669.685 438.167 660.652 434.118 652.087 431.315C644.144 428.668 636.668 423.685 628.57 421.972C612.996 418.391 607.545 441.592 604.118 453.271C601.315 462.925 599.446 473.202 598.668 483.635C598.512 485.815 598.356 488.151 599.29 490.331C600.069 492.2 601.627 493.601 603.184 494.847C607.7 498.428 612.528 501.698 617.512 504.345C629.971 510.885 643.677 514.311 656.136 520.695C665.636 525.678 690.087 536.89 700.678 535.021C710.022 533.308 714.539 528.637 717.03 519.138C719.522 509.64 702.547 493.912 700.055 484.414ZM701.145 512.754C698.965 519.761 691.489 521.941 683.235 521.318C677.161 520.851 640.718 501.698 631.529 498.584C624.053 496.092 615.643 493.912 611.438 487.372C608.012 481.922 608.635 474.76 610.037 468.531C612.061 459.811 615.488 451.558 619.07 443.461C621.873 437.076 626.701 427.578 635.111 430.692C638.226 431.782 641.029 433.962 643.988 435.364C646.168 436.298 665.325 444.551 672.956 447.198C680.587 449.845 690.866 448.599 692.579 456.385C693.825 462.458 689.776 468.219 690.087 474.292C690.243 478.341 690.087 482.234 690.866 486.438C691.956 492.511 703.014 506.837 701.145 512.754Z" fill="#606060"/>
<path d="M690.866 486.437C690.087 482.233 690.243 478.34 690.087 474.292C689.776 468.219 693.825 462.457 692.579 456.384C690.866 448.599 680.587 449.844 672.956 447.197C665.325 444.55 646.169 436.297 643.988 435.363C641.029 433.961 638.226 431.781 635.111 430.691C626.701 427.577 621.873 437.076 619.07 443.46C615.488 451.557 612.061 459.81 610.037 468.53C608.635 474.759 608.012 481.922 611.438 487.372C615.643 493.912 624.053 496.092 631.529 498.583C640.718 501.697 677.161 520.85 683.235 521.318C691.489 521.94 698.965 519.76 701.145 512.753C703.014 506.836 691.956 492.51 690.866 486.437ZM681.833 483.167C680.276 487.527 678.563 491.887 675.448 495.157C670.776 499.985 662.677 503.566 655.98 502.476C649.283 501.386 643.054 498.116 637.136 494.69C632.931 492.199 625.144 488.617 620.939 486.126C615.488 482.856 616.578 476.004 616.734 473.824C617.201 467.907 624.209 453.27 627.168 448.132C633.554 437.076 644.923 443.149 656.136 446.73C667.038 450.156 682.768 454.983 684.636 468.219C685.415 473.357 683.546 478.34 681.833 483.167Z" fill="#4F4F4F"/>
<path d="M684.637 468.22C682.768 454.984 667.038 450.157 656.136 446.731C644.923 443.149 633.554 437.077 627.168 448.132C624.209 453.271 617.201 467.908 616.734 473.825C616.578 476.005 615.488 482.857 620.939 486.127C625.144 488.618 632.931 492.2 637.136 494.691C643.054 498.117 649.284 501.387 655.98 502.477C662.677 503.567 670.776 499.985 675.448 495.158C678.563 491.888 680.276 487.528 681.833 483.168C683.546 478.341 685.415 473.358 684.637 468.22ZM672.645 480.677C672.022 483.012 671.243 485.504 669.841 487.528C666.415 492.355 659.251 493.134 653.333 492.044C645.078 490.642 637.291 486.75 631.218 480.832C630.283 479.898 629.349 478.964 628.881 477.718C628.57 476.628 628.57 475.382 628.726 474.137C629.66 462.614 631.685 449.845 645.079 451.869C650.997 452.648 664.079 457.32 668.595 460.745C675.448 465.884 674.669 473.047 672.645 480.677Z" fill="#3F3F3F"/>
<path d="M672.644 480.676C672.021 483.011 671.243 485.503 669.841 487.527C666.415 492.354 659.251 493.133 653.332 492.043C645.078 490.641 637.291 486.749 631.217 480.831C630.283 479.897 629.348 478.963 628.881 477.717C628.57 476.627 628.57 475.381 628.725 474.136C629.66 462.613 631.684 449.844 645.078 451.868C650.996 452.647 664.078 457.319 668.595 460.744C675.448 465.883 674.669 473.046 672.644 480.676Z" fill="#333333"/>
<path d="M532.478 546.388C508.338 540.004 482.173 533.775 465.509 515.245C455.386 504.19 449.935 489.708 441.525 477.251C418.787 444.084 375.18 425.709 363.343 387.403C353.687 355.949 380.786 341.312 407.262 322.003C418.631 313.75 431.246 295.376 439.033 282.919C450.247 265.167 451.96 240.876 456.165 220.321C458.345 210.044 460.214 199.3 458.034 189.023C456.632 182.327 451.181 172.205 442.927 165.977C399.008 133.588 357.892 137.481 327.056 138.104C322.851 138.213 318.63 137.948 314.394 137.372L311.482 140.284V147.026C323.271 148.973 335.824 150.187 349.482 151.651C376.893 154.61 413.647 159.748 432.804 179.68C441.525 188.867 444.328 206.463 440.902 218.609C437.32 231.066 401.188 253.177 388.106 256.291C375.024 259.406 361.942 265.946 356.646 278.247C348.548 297.089 364.745 315.619 359.605 335.55C356.802 346.45 348.081 354.548 343.408 364.669C333.753 385.535 343.097 410.916 357.892 428.668C372.688 446.419 392.311 459.499 408.041 476.472C421.59 491.109 432.025 508.394 442.148 525.522C443.55 528.014 445.107 530.505 445.886 533.308C449.001 544.675 438.566 555.887 427.197 558.378C415.828 560.87 404.147 557.288 392.934 554.174C359.761 544.675 324.408 538.603 290.612 546.233C276.751 549.503 262.268 554.953 248.562 551.06C230.496 545.921 220.529 526.768 215.39 508.705C210.094 490.642 207.135 471.022 194.676 457.008C189.848 451.558 183.774 447.198 178.79 441.748C171.626 433.962 167.11 424.152 162.593 414.654C156.987 402.508 151.224 388.182 157.61 376.503C164.618 363.579 181.594 361.399 196.078 359.063C219.75 355.17 245.292 344.738 254.013 322.47C260.399 306.12 256.038 287.59 251.054 270.773C244.077 247.4 235.869 224.401 226.509 201.885L225.824 202.57V233.713L224.173 235.363C233.455 261.57 240.059 286.843 237.505 300.826C236.415 306.587 233.455 315.307 219.595 324.806C194.365 342.09 195.299 335.395 186.11 334.149C176.922 332.903 149.2 322.782 132.535 336.64C115.871 350.499 116.494 374.168 120.232 388.805C123.97 403.442 137.052 411.228 138.765 430.069C141.724 461.991 170.38 467.441 177.7 477.874C185.643 489.085 190.627 510.574 194.988 520.695C199.348 530.817 199.348 564.296 208.537 575.974C217.726 587.653 248.095 603.224 252.456 625.491C252.456 625.491 252.798 627.516 253.25 630.786H256.972L264.759 638.571H277.779C277.328 636.968 277.032 635.846 276.907 635.301C274.104 622.221 282.67 599.02 286.719 589.366C291.391 577.998 302.449 571.303 316.465 569.59C330.482 567.877 352.753 562.115 371.753 577.064L390.754 591.857C390.754 591.857 405.549 600.11 425.328 589.366C445.107 578.621 465.353 560.714 479.993 563.984C494.633 567.254 525.158 563.828 536.683 571.303C548.207 578.777 551.478 592.947 568.765 599.954C586.052 606.806 613.307 594.816 628.881 599.954C639.487 603.427 660.746 617.939 673.439 627.033L678.796 621.676C640.78 583.557 585.741 560.59 532.478 546.388ZM369.106 275.756C372.999 275.756 375.958 276.223 378.606 275.133C381.253 274.354 382.499 269.683 384.368 268.282C385.77 267.192 394.336 260.029 409.91 258.783C425.484 257.537 417.697 283.074 417.697 283.074C417.697 283.074 414.426 292.106 406.172 296.622C397.918 301.137 401.033 296.622 395.426 304.252C389.819 311.882 388.418 312.505 380.008 311.882C371.598 311.259 374.245 294.753 374.245 294.753C374.245 294.753 371.286 286.033 367.237 284.009C363.188 281.984 365.212 275.756 369.106 275.756Z" fill="#3F3F3F"/>
<path d="M417.696 283.074C417.696 283.074 414.426 292.105 406.172 296.621C397.917 301.137 401.032 296.621 395.426 304.251C389.819 311.881 388.417 312.504 380.007 311.881C371.597 311.258 374.245 294.753 374.245 294.753C374.245 294.753 371.286 286.033 367.236 284.008C363.187 281.984 365.212 275.755 369.105 275.755C372.999 275.755 375.958 276.222 378.606 275.132C381.253 274.354 382.499 269.682 384.368 268.281C385.77 267.191 394.335 260.028 409.909 258.782C425.484 257.537 417.696 283.074 417.696 283.074Z" fill="#262626"/>
<path d="M445.886 533.308C445.107 530.505 443.549 528.014 442.148 525.522C432.025 508.394 421.59 491.109 408.041 476.472C392.311 459.499 372.687 446.419 357.892 428.668C343.097 410.916 333.752 385.535 343.408 364.669C348.08 354.548 356.802 346.45 359.605 335.55C364.745 315.619 348.548 297.089 356.646 278.247C361.941 265.946 375.024 259.406 388.106 256.291C401.188 253.177 437.32 231.066 440.902 218.608C444.328 206.463 441.525 188.867 432.803 179.68C413.647 159.748 376.892 154.61 349.482 151.651C335.824 150.187 323.271 148.973 311.481 147.026V148.07H280.333L272.749 155.653C288.774 165.229 306.155 172.377 324.564 175.475C342.162 178.434 360.228 177.5 377.983 179.524C395.737 181.548 414.114 186.843 426.418 199.767C429.377 202.881 432.18 206.774 432.492 211.134C433.115 220.477 423.459 226.861 415.049 231.066C398.385 239.474 381.565 247.883 364.9 256.291C358.204 259.562 351.195 263.299 346.99 269.527C337.179 284.32 347.925 303.629 348.703 321.38C349.482 338.509 340.605 354.236 333.597 369.808C326.588 385.379 321.293 403.753 328.769 419.169C333.285 428.356 341.695 434.741 349.482 441.281C371.753 459.655 391.844 480.832 409.131 504.034C413.647 510.262 427.041 533.62 416.295 536.267C393.401 542.028 359.294 528.481 341.228 526.301C330.637 525.055 308.678 520.695 271.923 523.187C264.915 523.81 257.439 522.408 251.988 518.048C241.242 509.484 244.98 492.355 252.144 480.677C259.308 468.998 269.276 457.475 268.653 443.928C267.718 423.529 243.267 410.449 241.554 390.051C240.152 373.701 253.857 360.465 261.644 345.828C276.595 317.955 269.431 283.697 259.931 253.644C252.674 230.692 244.186 208.129 234.514 186.095L233.611 186.998V194.784L226.509 201.885C235.869 224.401 244.077 247.4 251.054 270.773C256.038 287.59 260.398 306.12 254.013 322.47C245.292 344.738 219.75 355.17 196.077 359.063C181.594 361.399 164.618 363.579 157.609 376.503C151.224 388.182 156.987 402.508 162.593 414.654C167.11 424.152 171.626 433.962 178.79 441.748C183.774 447.198 189.848 451.558 194.676 457.008C207.135 471.022 210.094 490.642 215.389 508.705C220.529 526.768 230.496 545.921 248.562 551.06C262.267 554.953 276.751 549.503 290.612 546.233C324.408 538.603 359.761 544.675 392.934 554.174C404.147 557.288 415.828 560.87 427.197 558.378C438.566 555.887 449 544.675 445.886 533.308ZM228.783 452.492C212.274 453.427 200.75 438.478 202.93 429.446C205.11 420.415 195.143 415.276 199.192 407.179C200.75 404.065 206.668 401.573 212.43 403.131C218.193 404.688 237.037 412.162 244.513 429.914C251.833 447.509 245.292 451.714 228.783 452.492Z" fill="#333333"/>
<path d="M228.783 452.492C212.275 453.426 200.75 438.478 202.93 429.446C205.111 420.415 195.143 415.276 199.192 407.179C200.75 404.065 206.668 401.573 212.43 403.13C218.193 404.688 237.037 412.162 244.513 429.913C251.833 447.509 245.292 451.713 228.783 452.492Z" fill="#212121"/>
<path d="M346.991 269.527C337.179 284.32 347.925 303.628 348.704 321.38C349.482 338.508 340.605 354.236 333.597 369.807C326.589 385.378 321.293 403.753 328.769 419.169C333.285 428.356 341.695 434.74 349.482 441.28C371.753 459.655 391.844 480.832 409.131 504.033C413.648 510.262 427.041 533.619 416.295 536.266C393.401 542.028 359.294 528.48 341.228 526.3C330.638 525.055 308.678 520.695 271.924 523.186C264.915 523.809 257.44 522.408 251.989 518.048C241.243 509.483 244.98 492.355 252.144 480.676C259.309 468.997 269.276 457.474 268.653 443.927C267.719 423.529 243.267 410.449 241.554 390.05C240.152 373.7 253.858 360.464 261.645 345.827C276.596 317.954 269.432 283.697 259.932 253.644C252.674 230.691 244.186 208.128 234.515 186.095L241.398 179.212H244.139C246.912 186.546 251.335 196.605 252.767 199.922C260.866 218.452 275.661 236.982 280.022 257.381C282.202 267.658 286.407 280.894 287.653 292.261C288.744 302.694 289.367 312.971 288.276 324.027C287.498 333.058 259.464 371.364 257.595 387.247C255.259 407.023 283.916 418.234 284.539 437.232C285.784 475.226 260.866 486.905 273.637 506.992C276.907 512.13 303.072 506.836 335.31 510.885C363.499 514.466 381.565 526.923 390.91 521.473C415.672 507.148 348.237 461.367 339.204 454.049C284.383 409.203 322.384 348.163 326.277 342.868C338.736 325.74 325.498 303.784 328.146 291.015C329.548 284.787 330.326 277.468 334.064 269.527C336.712 263.609 336.556 263.609 341.228 259.094C347.302 253.177 354.622 247.727 362.097 243.678C370.975 239.007 402.59 224.836 408.82 220.788C414.582 216.895 419.722 214.248 419.41 209.576C419.099 205.684 413.18 202.258 406.639 198.832C397.762 194.161 385.459 194.628 376.426 193.693C347.925 191.046 327.212 195.251 301.514 182.638C293.821 178.792 279.103 169.464 270.304 165.883L272.547 163.641V155.855L272.749 155.652C288.775 165.229 306.155 172.376 324.564 175.475C342.163 178.433 360.229 177.499 377.983 179.523C395.737 181.548 414.115 186.842 426.418 199.766C429.377 202.881 432.181 206.774 432.492 211.134C433.115 220.476 423.459 226.861 415.049 231.065C398.385 239.474 381.565 247.882 364.901 256.291C358.204 259.561 351.196 263.298 346.991 269.527Z" fill="#2D2D2D"/>
<path d="M406.639 198.832C397.761 194.161 385.458 194.628 376.425 193.693C347.924 191.046 327.211 195.251 301.514 182.638C293.82 178.792 279.102 169.464 270.303 165.883L256.972 179.212H244.139C246.911 186.546 251.334 196.605 252.767 199.922C260.865 218.452 275.661 236.982 280.021 257.381C282.202 267.658 286.407 280.894 287.653 292.261C288.743 302.694 289.366 312.971 288.276 324.027C287.497 333.058 259.464 371.364 257.595 387.247C255.259 407.023 283.915 418.234 284.538 437.232C285.784 475.226 260.865 486.905 273.636 506.992C276.907 512.13 303.071 506.836 335.309 510.885C363.498 514.466 381.564 526.923 390.909 521.473C415.672 507.148 348.236 461.367 339.203 454.049C284.382 409.203 322.383 348.163 326.276 342.868C338.736 325.74 325.498 303.784 328.145 291.015C329.547 284.787 330.326 277.468 334.063 269.527C336.711 263.609 336.555 263.609 341.227 259.094C347.301 253.177 354.621 247.727 362.097 243.678C370.974 239.007 402.589 224.836 408.819 220.788C414.581 216.895 419.721 214.248 419.409 209.576C419.098 205.684 413.18 202.258 406.639 198.832ZM380.474 221.099C377.671 223.746 373.933 224.992 370.351 226.082C359.449 229.508 348.236 233.089 339.826 241.187C333.129 247.571 328.612 256.291 321.76 262.519C314.907 268.748 304.005 271.862 297.309 265.478C292.013 260.495 292.325 251.775 290.767 244.457C286.874 227.328 276.284 215.494 268.808 202.881C266.628 199.299 261.488 191.981 265.226 184.973C267.251 181.081 273.324 182.638 277.218 184.039C283.759 186.531 294.505 194.161 301.202 196.341C314.752 200.856 326.899 202.569 341.072 203.659C351.974 204.594 363.187 203.971 374.089 205.684C377.359 206.151 380.941 207.241 382.654 210.199C384.679 213.625 383.277 218.452 380.474 221.099Z" fill="#262626"/>
<path d="M380.474 221.1C377.671 223.747 373.933 224.993 370.351 226.083C359.449 229.508 348.236 233.09 339.826 241.187C333.129 247.571 328.613 256.291 321.76 262.52C314.908 268.748 304.006 271.863 297.309 265.478C292.014 260.496 292.325 251.776 290.768 244.457C286.874 227.328 276.284 215.494 268.808 202.881C266.628 199.3 261.489 191.981 265.226 184.974C267.251 181.081 273.325 182.638 277.218 184.04C283.759 186.531 294.506 194.161 301.202 196.341C314.752 200.857 326.9 202.57 341.072 203.66C351.974 204.594 363.187 203.971 374.089 205.684C377.36 206.151 380.942 207.241 382.655 210.2C384.679 213.625 383.278 218.453 380.474 221.1Z" fill="#212121"/>
<path d="M747.089 333.059C743.818 341.311 732.605 339.287 732.605 339.287C732.605 339.287 727.31 337.574 713.293 343.803C699.276 350.031 679.497 351.277 670.464 346.294C661.431 341.311 653.956 329.01 652.398 323.56C650.685 318.266 632.152 293.818 627.635 282.296C623.119 270.773 621.406 262.52 625.922 242.744C630.439 222.968 623.43 191.202 623.43 177.967C623.43 164.731 613.463 111.632 613.463 111.632C613.463 111.632 610.971 91.8563 629.972 83.1362C639.472 78.7762 643.21 70.2119 647.103 64.4504C648.302 62.6441 649.642 60.978 651.09 59.4053L660.481 68.7949C659.142 70.2119 657.865 71.6912 656.603 73.1705C640.562 92.3234 627.013 116.771 631.685 141.374C633.398 150.405 637.447 158.814 639.628 167.845C643.365 183.572 632.152 204.905 633.086 220.321C634.021 239.007 655.357 210.978 662.677 207.241C665.465 205.808 667.817 204.298 669.81 202.694L677.473 210.355H685.26L685.493 210.589C680.369 214.871 673.719 217.098 667.817 220.321C654.734 227.64 646.636 230.754 642.275 245.235C634.955 269.838 642.275 289.926 652.865 313.283C655.98 320.29 661.431 321.38 661.431 328.231C661.276 329.166 664.235 331.969 664.702 332.903C665.169 333.837 666.259 334.304 667.194 334.771C673.268 337.419 679.964 338.976 686.661 338.976C700.522 338.976 713.449 332.747 725.908 326.519C728.555 325.273 731.203 324.027 733.383 322.003C738.211 317.643 740.08 310.947 740.392 304.407C740.407 304.205 740.407 303.987 740.407 303.784H747.556L749.487 305.715C750.749 313.33 750.235 325.491 747.089 333.059Z" fill="#4F4F4F"/>
<path d="M740.407 303.784C740.407 303.987 740.407 304.205 740.391 304.407C740.079 310.947 738.211 317.643 733.383 322.003C731.202 324.027 728.555 325.273 725.907 326.519C713.448 332.747 700.521 338.976 686.66 338.976C679.964 338.976 673.267 337.419 667.193 334.771C666.258 334.304 665.168 333.837 664.701 332.903C664.234 331.969 661.275 329.166 661.43 328.231C661.43 321.38 655.98 320.29 652.865 313.283C642.274 289.926 634.955 269.838 642.274 245.235C646.635 230.754 654.734 227.64 667.816 220.321C673.718 217.098 680.369 214.871 685.492 210.589L693.046 218.141H693.108C691.021 219.402 688.716 220.243 686.037 220.165C678.718 220.01 670.775 223.124 667.193 229.508C665.791 232.311 665.168 235.425 664.39 238.384C662.676 244.924 660.029 251.153 656.447 256.758C643.365 277.468 648.815 306.898 667.193 323.56C669.373 325.429 672.177 326.051 675.136 326.051H675.603C676.849 326.207 677.939 327.141 679.029 327.92C683.078 330.567 688.529 329.789 693.357 329.01C698.497 328.231 703.948 326.986 707.218 322.937C708.62 321.069 709.399 318.733 710.8 316.864C714.382 311.881 721.079 310.324 726.063 306.898C729.427 304.563 731.95 301.246 733.507 297.524L739.768 303.784H740.407Z" fill="#606060"/>
<path d="M724.195 288.212H716.408V258.408C715.831 257.474 715.317 256.509 714.881 255.543L708.621 249.284H700.834V241.498L708.621 233.712V218.141H693.109C691.022 219.402 688.717 220.243 686.038 220.165C678.718 220.009 670.776 223.124 667.194 229.508C665.792 232.311 665.169 235.425 664.39 238.384C662.677 244.924 660.03 251.152 656.447 256.758C643.365 277.468 648.816 306.898 667.194 323.56C669.374 325.428 672.177 326.051 675.136 326.051H675.604C676.849 326.207 677.94 327.141 679.03 327.92C683.079 330.567 688.53 329.788 693.358 329.01C698.497 328.231 703.948 326.985 707.219 322.937C708.621 321.068 709.399 318.732 710.801 316.864C714.383 311.881 721.08 310.324 726.064 306.898C729.428 304.562 731.951 301.246 733.508 297.524L724.195 288.212ZM708.309 295.842C702.547 303.317 688.53 317.175 679.03 320.134C669.53 323.092 667.038 316.085 667.038 316.085C667.038 316.085 665.169 309.857 664.857 307.21C664.39 303.784 661.743 300.825 660.808 299.579C656.136 293.507 657.849 281.984 658.316 279.492C659.718 272.485 665.636 273.264 667.349 263.765C668.907 254.266 668.751 253.021 675.915 246.481C679.809 243.055 692.891 238.695 696.784 243.522C700.522 248.505 695.85 251.152 699.743 262.519C702.391 270.305 707.219 264.855 711.268 274.821C715.317 284.787 711.58 291.638 708.309 295.842Z" fill="#4F4F4F"/>
<path d="M711.268 274.821C707.219 264.855 702.391 270.305 699.743 262.52C695.849 251.152 700.522 248.505 696.784 243.522C692.89 238.695 679.808 243.055 675.915 246.481C668.751 253.021 668.906 254.267 667.349 263.765C665.636 273.264 659.718 272.485 658.316 279.493C657.849 281.984 656.136 293.507 660.808 299.58C661.742 300.825 664.39 303.784 664.857 307.21C665.169 309.857 667.037 316.086 667.037 316.086C667.037 316.086 669.529 323.093 679.029 320.134C688.53 317.175 702.546 303.317 708.309 295.843C711.579 291.638 715.317 284.787 711.268 274.821ZM697.251 287.901C696.472 296.621 690.243 303.628 684.325 309.857C682.611 311.57 680.898 313.283 678.718 314.217C676.538 315.151 673.579 314.84 672.177 312.971C670.931 311.414 671.087 309.234 670.619 307.365C669.685 303.005 666.103 299.58 664.39 295.375C660.185 285.098 667.349 281.05 672.8 274.042C676.382 269.215 678.095 259.25 683.079 255.824C689.62 251.308 687.751 254.734 690.399 262.364C693.046 270.461 697.874 279.181 697.251 287.901Z" fill="#4F4F4F"/>
<path d="M697.252 287.901C696.473 296.621 690.243 303.628 684.325 309.857C682.612 311.569 680.899 313.282 678.718 314.217C676.538 315.151 673.579 314.839 672.177 312.971C670.931 311.414 671.087 309.234 670.62 307.365C669.685 303.005 666.103 299.579 664.39 295.375C660.185 285.098 667.349 281.049 672.8 274.042C676.382 269.215 678.095 259.249 683.079 255.823C689.62 251.308 687.751 254.733 690.399 262.364C693.046 270.461 697.874 279.181 697.252 287.901Z" fill="#606060"/>
<path d="M714.881 255.544L708.62 249.284H700.833V241.498L708.62 233.712V218.141H693.108C698.668 214.793 702.671 208.502 707.997 208.954C708.776 208.954 709.71 209.109 710.333 209.577C710.956 210.044 711.112 210.667 711.423 211.289C715.582 221.878 708.013 240.611 714.881 255.544Z" fill="#4F4F4F"/>
<path d="M693.047 148.069V157.646C691.38 161.617 689.854 165.307 688.577 168.11L685.26 171.427V175.755C684.792 176.939 684.341 178.091 683.905 179.212H677.473V186.998L669.685 194.784V202.57L669.81 202.694C667.817 204.298 665.465 205.808 662.677 207.241C655.357 210.978 634.021 239.007 633.086 220.321C632.152 204.905 643.365 183.572 639.628 167.845C637.447 158.814 633.398 150.405 631.685 141.374C627.013 116.771 640.562 92.3234 656.603 73.1705C657.865 71.6912 659.142 70.2119 660.481 68.7949L661.898 70.2119V77.9977L666.01 82.1085C663.721 84.3041 661.431 86.5931 658.939 88.8977C650.685 97.1506 642.587 103.223 638.693 114.902C634.8 126.581 635.89 139.816 641.652 150.717C645.857 158.658 652.554 165.821 653.488 174.852V175.319C654.267 185.441 667.817 188.244 672.333 179.212C672.956 178.122 673.423 177.032 673.891 175.942C679.03 164.419 681.678 151.651 683.235 139.038C683.282 138.82 683.313 138.602 683.344 138.384L693.047 148.069Z" fill="#606060"/>
<path d="M683.344 138.369C683.313 138.602 683.281 138.82 683.235 139.038C681.677 151.651 679.03 164.42 673.89 175.943C673.423 177.033 672.956 178.123 672.333 179.213C667.816 188.244 654.267 185.441 653.488 175.32V174.853C652.554 165.821 645.857 158.658 641.652 150.717C635.89 139.817 634.799 126.581 638.693 114.902C642.586 103.224 650.685 97.151 658.939 88.8981C661.431 86.5935 663.72 84.3045 666.01 82.1089L669.685 85.7838L677.472 77.998H679.622C673.112 83.4325 668.268 90.3151 661.587 96.9953C652.709 105.56 643.988 113.19 643.521 126.737C643.054 136.858 664.702 189.023 668.907 163.953C669.374 160.683 670.464 157.568 671.087 154.454C672.598 146.17 673.423 136.843 677.472 129.742V132.498L683.344 138.369Z" fill="#4F4F4F"/>
<path d="M685.26 77.998V109.141L677.473 116.927V129.742C673.423 136.843 672.598 146.17 671.087 154.454C670.464 157.568 669.374 160.683 668.907 163.953C664.702 189.023 643.054 136.858 643.521 126.737C643.988 113.19 652.71 105.56 661.587 96.9953C668.268 90.3151 673.112 83.4325 679.622 77.998H685.26Z" fill="#4F4F4F"/>
<path d="M617.31 695.204L615.176 693.071H611.516C610.768 690.19 609.663 687.31 608.168 685.441C602.561 678.122 594.307 670.337 585.274 669.091C574.995 667.689 573.905 671.582 563.781 673.139C554.951 674.432 540.934 673.685 529.518 673.778V669.714H521.731V674.043C520.968 674.089 520.252 674.152 519.551 674.229C510.051 675.319 499.149 680.458 491.829 686.531C487.951 689.676 485.101 693.881 482.796 698.365V685.285H465.275C466.739 681.237 467.876 678.449 468.468 677.811C470.648 675.475 473.763 672.672 478.28 670.025C487.313 664.731 501.641 659.748 523.912 659.748C572.503 659.748 587.921 650.405 587.921 650.405C587.921 650.405 607.856 647.914 612.84 661.149C617.823 674.385 617.2 694.472 617.2 694.472L617.31 695.204Z" fill="#595959"/>
<path d="M521.731 674.043V677.5L513.944 685.286H506.157L498.37 693.071V708.643H490.583L482.796 700.857V698.366C485.101 693.881 487.951 689.677 491.829 686.531C499.149 680.458 510.051 675.32 519.551 674.23C520.252 674.152 520.968 674.09 521.731 674.043Z" fill="#4F4F4F"/>
<path d="M611.516 693.071H607.389L605.941 694.519C605.691 693.492 605.349 692.495 604.897 691.514C602.872 687.154 599.29 683.728 595.397 680.925C591.192 677.811 586.52 675.008 581.225 674.697C568.298 673.918 559.421 687.777 547.273 692.293C544.034 693.445 540.67 693.959 537.306 694.457V693.071L529.519 685.285V673.778C540.934 673.685 554.951 674.432 563.782 673.14C573.905 671.583 574.995 667.69 585.274 669.091C594.307 670.337 602.561 678.123 608.168 685.441C609.663 687.31 610.768 690.19 611.516 693.071Z" fill="#4F4F4F"/>
<path d="M605.941 694.519L602.919 697.54C602.888 695.516 602.577 693.413 601.627 691.825C598.2 686.064 587.454 679.212 577.175 679.679C566.896 680.147 563.159 686.842 562.691 691.514C562.536 694.628 559.888 697.431 557.085 698.988C554.437 700.545 551.167 701.168 548.363 702.57C545.373 703.987 542.881 706.089 540.872 708.642H537.306V694.457C540.67 693.958 544.034 693.445 547.273 692.292C559.421 687.777 568.298 673.918 581.225 674.697C586.52 675.008 591.192 677.811 595.397 680.925C599.29 683.728 602.872 687.154 604.897 691.514C605.349 692.495 605.691 693.491 605.941 694.519Z" fill="#3F3F3F"/>
<path d="M602.919 697.54L599.602 700.857H584.028L576.241 693.071H568.454L552.88 708.643H540.872C542.881 706.089 545.373 703.987 548.363 702.57C551.167 701.169 554.437 700.546 557.085 698.989C559.888 697.431 562.536 694.629 562.691 691.514C563.159 686.843 566.896 680.147 577.175 679.68C587.454 679.213 598.2 686.064 601.626 691.826C602.577 693.414 602.888 695.516 602.919 697.54Z" fill="#333333"/>
<path d="M687.346 607.428H685.259V615.214L684.948 615.525C683.452 613.127 682.518 611.679 682.3 611.477C679.341 608.674 674.669 604.158 668.906 599.175C656.291 588.275 639.16 575.195 627.479 573.327C606.766 570.057 589.478 556.198 579.2 547.011C568.921 537.824 527.338 527.546 496.345 518.515C465.353 509.483 474.853 497.961 474.853 497.961C478.435 468.998 555.527 464.638 558.486 450.623C561.289 436.609 537.928 435.986 528.272 436.142C514.1 436.297 496.19 443.616 477.657 446.73C459.123 449.845 439.344 434.585 439.344 434.585C439.344 434.585 397.606 400.172 395.581 374.634C393.557 349.097 410.065 335.55 423.615 326.051C437.164 316.553 433.893 313.594 438.41 303.317C443.082 293.04 460.837 286.5 462.394 265.011C463.951 243.522 474.697 224.214 474.697 224.214C474.697 224.214 494.477 203.192 492.452 185.908C490.427 168.624 460.681 146.356 460.681 146.356C460.681 146.356 419.41 121.909 393.868 115.369C377.36 111.009 338.736 121.131 322.85 122.376C311.076 123.264 299.676 121.006 288.712 116.335L295.907 109.141V93.5691L303.694 85.7833V70.2118H319.268L324.688 64.793C332.6 73.731 340.605 82.5133 351.351 87.3405C386.548 103.068 429.221 68.0318 464.574 83.6033C499.46 117.082 509.895 170.804 499.149 217.83C488.403 264.855 458.968 305.964 424.238 339.599C416.606 346.917 408.352 354.703 405.549 364.824C403.835 370.897 412.557 386.469 417.073 391.296C436.385 412.006 440.746 434.117 468.779 438.477C496.813 442.837 535.904 414.653 549.142 418.857C570.945 429.135 566.896 446.419 557.863 458.876C548.674 471.333 530.92 477.718 517.838 486.126C513.944 488.618 505.534 490.798 504.755 495.313C503.51 501.698 504.755 504.656 510.518 507.926C561.601 537.824 629.192 556.198 673.734 594.348C678.531 598.443 683.047 602.834 687.346 607.428Z" fill="#606060"/>
<path d="M802.065 358.284L794.278 350.498H765.544C761.651 352.492 758.053 354.5 756.278 355.949C752.695 358.751 748.335 362.956 743.663 369.184C732.449 383.977 713.293 383.977 695.383 387.714C677.473 391.452 638.226 395.967 627.168 362.333C615.955 328.698 593.061 310.324 588.078 304.095C583.094 297.867 579.668 264.077 588.078 246.481C594.619 232.778 600.848 194.316 600.381 193.071C599.914 191.825 600.848 162.706 605.988 145.733C611.283 128.761 600.848 112.255 592.594 99.9533C584.34 87.6518 580.602 79.3989 588.078 67.876C593.684 59.3117 616.734 49.9688 628.259 48.2559C629.38 48.0846 630.455 47.8822 631.514 47.6175L630.75 46.8545H591.815L584.028 54.6402H568.454L560.667 62.426H552.88L546.682 56.2285C545.763 57.9725 545.202 59.2961 545.093 60.0903C543.847 68.3431 544.159 78.4646 550.077 86.0946C561.757 100.888 585.274 110.23 588.389 120.663C591.504 131.096 598.668 144.176 584.028 163.952C569.389 183.728 569.856 218.297 571.725 230.754C573.594 243.211 551.946 295.064 536.527 314.217C521.109 333.37 499.461 345.827 487.002 349.253C479.37 351.277 478.748 358.596 480.772 361.243C483.42 364.669 493.076 361.866 517.527 351.9C542.913 341.623 569.077 331.501 587.143 332.124C599.291 332.436 606.455 337.574 613.463 372.921C619.381 402.974 677.94 416.522 709.088 408.736C726.375 404.376 745.531 406.4 776.835 385.846C794.745 374.011 797.86 367.316 803.467 358.596C803.529 358.487 803.607 358.378 803.669 358.284H802.065ZM587.766 326.83C584.963 326.986 560.511 330.1 554.126 332.436C549.454 334.148 538.552 338.508 532.945 340.066C528.273 341.311 524.068 341.156 523.445 340.688C521.576 338.976 538.708 327.453 540.732 326.051C550.233 319.2 558.331 308.144 563.003 297.244C563.938 294.908 570.323 265.634 575.463 278.247C576.241 280.115 576.085 282.295 576.085 284.32C575.774 297.244 580.29 307.21 589.168 316.708C590.102 317.643 591.66 319.978 591.971 321.38C592.594 324.183 590.569 326.674 587.766 326.83Z" fill="#333333"/>
</g>
<defs>
<clipPath id="clip0_2469_1690">
<rect width="841" height="732" fill="white"/>
</clipPath>
</defs>
</svg>
