<svg width="242" height="73" viewBox="0 0 242 73" fill="none" xmlns="http://www.w3.org/2000/svg">
<path d="M0.508 14V1.04H6.284V3.008H3.148V14H0.508ZM10.8322 14V1.04H16.4803V2.864H13.4722V6.304H15.7923V8.144H13.4722V12.208H16.5122V14H10.8322ZM21.0799 14V1.04H23.7199V6.368H26.0079V1.04H28.6479V14H26.0079V8.256H23.7199V14H21.0799ZM37.4576 14.176C36.5083 14.176 35.7563 14.0053 35.2016 13.664C34.647 13.3227 34.247 12.8373 34.0016 12.208C33.767 11.568 33.6496 10.8053 33.6496 9.92V5.088C33.6496 4.20267 33.767 3.44533 34.0016 2.816C34.247 2.18667 34.647 1.70667 35.2016 1.376C35.7563 1.04533 36.5083 0.879999 37.4576 0.879999C38.4176 0.879999 39.175 1.05067 39.7296 1.392C40.295 1.72267 40.695 2.20267 40.9296 2.832C41.175 3.45067 41.2976 4.20267 41.2976 5.088V9.92C41.2976 10.8053 41.175 11.568 40.9296 12.208C40.695 12.8373 40.295 13.3227 39.7296 13.664C39.175 14.0053 38.4176 14.176 37.4576 14.176ZM37.4576 12.272C37.799 12.272 38.0496 12.1973 38.2096 12.048C38.3696 11.888 38.4763 11.68 38.5296 11.424C38.583 11.1573 38.6096 10.8747 38.6096 10.576V4.448C38.6096 4.14933 38.583 3.872 38.5296 3.616C38.4763 3.36 38.3696 3.15733 38.2096 3.008C38.0496 2.848 37.799 2.768 37.4576 2.768C37.1376 2.768 36.8976 2.848 36.7376 3.008C36.5776 3.15733 36.471 3.36 36.4176 3.616C36.3643 3.872 36.3376 4.14933 36.3376 4.448V10.576C36.3376 10.8747 36.359 11.1573 36.4016 11.424C36.455 11.68 36.5616 11.888 36.7216 12.048C36.8816 12.1973 37.127 12.272 37.4576 12.272ZM53.7644 16.704L53.4444 14H46.2924V1.04H48.9324V12.208H51.4284V1.04H54.0684V12.208H55.7164V16.704H53.7644ZM60.2424 14V1.04H62.3544V8.8L65.7784 1.04H67.5064V14H65.3624V6.112L61.9064 14H60.2424ZM71.9876 16.704V12.112H72.3876C72.6223 12.0267 72.841 11.888 73.0436 11.696C73.2463 11.4933 73.4276 11.232 73.5876 10.912C73.7583 10.5813 73.913 10.1707 74.0516 9.68C74.1903 9.18933 74.3076 8.592 74.4036 7.888C74.4996 7.184 74.5796 6.36267 74.6436 5.424L74.9636 1.04H80.8676V12.112H82.2756V16.704H80.4996L80.3556 14H73.9876L73.8276 16.704H71.9876ZM74.8836 12.112H78.3876V2.928H76.9956L76.8516 5.744C76.7983 6.704 76.7236 7.52 76.6276 8.192C76.5316 8.864 76.4143 9.424 76.2756 9.872C76.1476 10.3093 76.009 10.6667 75.8596 10.944C75.7103 11.2213 75.5503 11.4453 75.3796 11.616C75.209 11.7867 75.0436 11.952 74.8836 12.112ZM93.951 14V1.04H98.063C98.8417 1.04 99.4763 1.18933 99.967 1.488C100.458 1.776 100.82 2.19733 101.055 2.752C101.3 3.30667 101.423 3.97867 101.423 4.768C101.423 5.696 101.263 6.42133 100.943 6.944C100.634 7.46667 100.207 7.84 99.663 8.064C99.119 8.27733 98.495 8.384 97.791 8.384H96.591V14H93.951ZM96.591 6.528H97.519C97.903 6.528 98.1963 6.46933 98.399 6.352C98.6123 6.224 98.7563 6.02667 98.831 5.76C98.9057 5.49333 98.943 5.152 98.943 4.736C98.943 4.34133 98.911 4.01067 98.847 3.744C98.7937 3.47733 98.6657 3.26933 98.463 3.12C98.2603 2.97067 97.9403 2.896 97.503 2.896H96.591V6.528ZM109.595 14.176C108.646 14.176 107.894 14.0053 107.339 13.664C106.784 13.3227 106.384 12.8373 106.139 12.208C105.904 11.568 105.787 10.8053 105.787 9.92V5.088C105.787 4.20267 105.904 3.44533 106.139 2.816C106.384 2.18667 106.784 1.70667 107.339 1.376C107.894 1.04533 108.646 0.879999 109.595 0.879999C110.555 0.879999 111.312 1.05067 111.867 1.392C112.432 1.72267 112.832 2.20267 113.067 2.832C113.312 3.45067 113.435 4.20267 113.435 5.088V9.92C113.435 10.8053 113.312 11.568 113.067 12.208C112.832 12.8373 112.432 13.3227 111.867 13.664C111.312 14.0053 110.555 14.176 109.595 14.176ZM109.595 12.272C109.936 12.272 110.187 12.1973 110.347 12.048C110.507 11.888 110.614 11.68 110.667 11.424C110.72 11.1573 110.747 10.8747 110.747 10.576V4.448C110.747 4.14933 110.72 3.872 110.667 3.616C110.614 3.36 110.507 3.15733 110.347 3.008C110.187 2.848 109.936 2.768 109.595 2.768C109.275 2.768 109.035 2.848 108.875 3.008C108.715 3.15733 108.608 3.36 108.555 3.616C108.502 3.872 108.475 4.14933 108.475 4.448V10.576C108.475 10.8747 108.496 11.1573 108.539 11.424C108.592 11.68 108.699 11.888 108.859 12.048C109.019 12.1973 109.264 12.272 109.595 12.272ZM118.35 14L118.574 1.04H121.374L122.974 9.216L124.686 1.04H127.39L127.614 14H125.694L125.486 5.216L123.838 14H122.19L120.462 5.152L120.286 14H118.35ZM132.083 14L134.595 1.04H137.523L140.019 14H137.571L137.107 11.152H135.059L134.563 14H132.083ZM135.299 9.536H136.851L136.067 4.304L135.299 9.536ZM151.732 14V1.04H155.012C155.578 1.04 156.1 1.088 156.58 1.184C157.06 1.28 157.482 1.45067 157.844 1.696C158.218 1.94133 158.5 2.28267 158.692 2.72C158.895 3.14667 158.996 3.70667 158.996 4.4C158.996 4.92267 158.922 5.37067 158.772 5.744C158.623 6.10667 158.41 6.39467 158.132 6.608C157.855 6.82133 157.514 6.96533 157.108 7.04C157.61 7.11467 158.031 7.28533 158.372 7.552C158.714 7.81867 158.97 8.17067 159.14 8.608C159.311 9.04533 159.396 9.57333 159.396 10.192C159.396 10.8427 159.311 11.408 159.14 11.888C158.98 12.368 158.74 12.7627 158.42 13.072C158.1 13.3813 157.706 13.616 157.236 13.776C156.767 13.9253 156.223 14 155.604 14H151.732ZM154.372 12.144H155.108C155.77 12.144 156.223 11.9787 156.468 11.648C156.724 11.3173 156.852 10.8213 156.852 10.16C156.852 9.648 156.794 9.24267 156.676 8.944C156.559 8.63467 156.367 8.41067 156.1 8.272C155.844 8.12267 155.498 8.048 155.06 8.048H154.372V12.144ZM154.372 6.272H155.028C155.487 6.272 155.834 6.208 156.068 6.08C156.303 5.94133 156.463 5.73867 156.548 5.472C156.644 5.19467 156.692 4.85867 156.692 4.464C156.692 4.06933 156.623 3.75467 156.484 3.52C156.356 3.27467 156.154 3.09867 155.876 2.992C155.61 2.88533 155.268 2.832 154.852 2.832H154.372V6.272ZM167.736 14.176C166.786 14.176 166.034 14.0053 165.48 13.664C164.925 13.3227 164.525 12.8373 164.28 12.208C164.045 11.568 163.928 10.8053 163.928 9.92V5.088C163.928 4.20267 164.045 3.44533 164.28 2.816C164.525 2.18667 164.925 1.70667 165.48 1.376C166.034 1.04533 166.786 0.879999 167.736 0.879999C168.696 0.879999 169.453 1.05067 170.008 1.392C170.573 1.72267 170.973 2.20267 171.208 2.832C171.453 3.45067 171.576 4.20267 171.576 5.088V9.92C171.576 10.8053 171.453 11.568 171.208 12.208C170.973 12.8373 170.573 13.3227 170.008 13.664C169.453 14.0053 168.696 14.176 167.736 14.176ZM167.736 12.272C168.077 12.272 168.328 12.1973 168.488 12.048C168.648 11.888 168.754 11.68 168.808 11.424C168.861 11.1573 168.888 10.8747 168.888 10.576V4.448C168.888 4.14933 168.861 3.872 168.808 3.616C168.754 3.36 168.648 3.15733 168.488 3.008C168.328 2.848 168.077 2.768 167.736 2.768C167.416 2.768 167.176 2.848 167.016 3.008C166.856 3.15733 166.749 3.36 166.696 3.616C166.642 3.872 166.616 4.14933 166.616 4.448V10.576C166.616 10.8747 166.637 11.1573 166.68 11.424C166.733 11.68 166.84 11.888 167 12.048C167.16 12.1973 167.405 12.272 167.736 12.272ZM183.738 14V1.04H187.018C187.584 1.04 188.106 1.088 188.586 1.184C189.066 1.28 189.488 1.45067 189.85 1.696C190.224 1.94133 190.506 2.28267 190.698 2.72C190.901 3.14667 191.002 3.70667 191.002 4.4C191.002 4.92267 190.928 5.37067 190.778 5.744C190.629 6.10667 190.416 6.39467 190.138 6.608C189.861 6.82133 189.52 6.96533 189.114 7.04C189.616 7.11467 190.037 7.28533 190.378 7.552C190.72 7.81867 190.976 8.17067 191.146 8.608C191.317 9.04533 191.402 9.57333 191.402 10.192C191.402 10.8427 191.317 11.408 191.146 11.888C190.986 12.368 190.746 12.7627 190.426 13.072C190.106 13.3813 189.712 13.616 189.242 13.776C188.773 13.9253 188.229 14 187.61 14H183.738ZM186.378 12.144H187.114C187.776 12.144 188.229 11.9787 188.474 11.648C188.73 11.3173 188.858 10.8213 188.858 10.16C188.858 9.648 188.8 9.24267 188.682 8.944C188.565 8.63467 188.373 8.41067 188.106 8.272C187.85 8.12267 187.504 8.048 187.066 8.048H186.378V12.144ZM186.378 6.272H187.034C187.493 6.272 187.84 6.208 188.074 6.08C188.309 5.94133 188.469 5.73867 188.554 5.472C188.65 5.19467 188.698 4.85867 188.698 4.464C188.698 4.06933 188.629 3.75467 188.49 3.52C188.362 3.27467 188.16 3.09867 187.882 2.992C187.616 2.88533 187.274 2.832 186.858 2.832H186.378V6.272ZM196.126 14V1.04H200.238C201.017 1.04 201.651 1.18933 202.142 1.488C202.633 1.776 202.995 2.19733 203.23 2.752C203.475 3.30667 203.598 3.97867 203.598 4.768C203.598 5.696 203.438 6.42133 203.118 6.944C202.809 7.46667 202.382 7.84 201.838 8.064C201.294 8.27733 200.67 8.384 199.966 8.384H198.766V14H196.126ZM198.766 6.528H199.694C200.078 6.528 200.371 6.46933 200.574 6.352C200.787 6.224 200.931 6.02667 201.006 5.76C201.081 5.49333 201.118 5.152 201.118 4.736C201.118 4.34133 201.086 4.01067 201.022 3.744C200.969 3.47733 200.841 3.26933 200.638 3.12C200.435 2.97067 200.115 2.896 199.678 2.896H198.766V6.528ZM208.154 14V1.04H213.802V2.864H210.794V6.304H213.114V8.144H210.794V12.208H213.834V14H208.154ZM218.322 14L218.546 1.04H221.346L222.946 9.216L224.658 1.04H227.362L227.586 14H225.666L225.458 5.216L223.81 14H222.162L220.434 5.152L220.258 14H218.322ZM231.895 14L234.407 8.224C233.895 7.936 233.479 7.504 233.159 6.928C232.839 6.34133 232.679 5.648 232.679 4.848C232.679 3.90933 232.844 3.16267 233.175 2.608C233.505 2.05333 233.991 1.65333 234.631 1.408C235.281 1.16267 236.076 1.04 237.015 1.04H240.183V14H237.559V8.832H236.935C236.924 8.832 236.887 8.832 236.823 8.832C236.769 8.82133 236.732 8.816 236.711 8.816L234.743 14H231.895ZM237.095 6.96H237.559V2.864H237.047C236.417 2.864 235.943 3.02933 235.623 3.36C235.303 3.69067 235.143 4.192 235.143 4.864C235.143 5.49333 235.281 6 235.559 6.384C235.847 6.768 236.359 6.96 237.095 6.96ZM0.476 42V29.04H3.756C4.32133 29.04 4.844 29.088 5.324 29.184C5.804 29.28 6.22533 29.4507 6.588 29.696C6.96133 29.9413 7.244 30.2827 7.436 30.72C7.63867 31.1467 7.74 31.7067 7.74 32.4C7.74 32.9227 7.66533 33.3707 7.516 33.744C7.36667 34.1067 7.15333 34.3947 6.876 34.608C6.59867 34.8213 6.25733 34.9653 5.852 35.04C6.35333 35.1147 6.77467 35.2853 7.116 35.552C7.45733 35.8187 7.71333 36.1707 7.884 36.608C8.05467 37.0453 8.14 37.5733 8.14 38.192C8.14 38.8427 8.05467 39.408 7.884 39.888C7.724 40.368 7.484 40.7627 7.164 41.072C6.844 41.3813 6.44933 41.616 5.98 41.776C5.51067 41.9253 4.96667 42 4.348 42H0.476ZM3.116 40.144H3.852C4.51333 40.144 4.96667 39.9787 5.212 39.648C5.468 39.3173 5.596 38.8213 5.596 38.16C5.596 37.648 5.53733 37.2427 5.42 36.944C5.30267 36.6347 5.11067 36.4107 4.844 36.272C4.588 36.1227 4.24133 36.048 3.804 36.048H3.116V40.144ZM3.116 34.272H3.772C4.23067 34.272 4.57733 34.208 4.812 34.08C5.04667 33.9413 5.20667 33.7387 5.292 33.472C5.388 33.1947 5.436 32.8587 5.436 32.464C5.436 32.0693 5.36667 31.7547 5.228 31.52C5.1 31.2747 4.89733 31.0987 4.62 30.992C4.35333 30.8853 4.012 30.832 3.596 30.832H3.116V34.272ZM14.0795 42V31.008H12.0795V29.04H18.7035V31.008H16.7355V42H14.0795ZM26.6951 42.176C25.7458 42.176 24.9938 42.0053 24.4391 41.664C23.8845 41.3227 23.4845 40.8373 23.2391 40.208C23.0045 39.568 22.8871 38.8053 22.8871 37.92V33.088C22.8871 32.2027 23.0045 31.4453 23.2391 30.816C23.4845 30.1867 23.8845 29.7067 24.4391 29.376C24.9938 29.0453 25.7458 28.88 26.6951 28.88C27.6551 28.88 28.4125 29.0507 28.9671 29.392C29.5325 29.7227 29.9325 30.2027 30.1671 30.832C30.4125 31.4507 30.5351 32.2027 30.5351 33.088V37.92C30.5351 38.8053 30.4125 39.568 30.1671 40.208C29.9325 40.8373 29.5325 41.3227 28.9671 41.664C28.4125 42.0053 27.6551 42.176 26.6951 42.176ZM26.6951 40.272C27.0365 40.272 27.2871 40.1973 27.4471 40.048C27.6071 39.888 27.7138 39.68 27.7671 39.424C27.8205 39.1573 27.8471 38.8747 27.8471 38.576V32.448C27.8471 32.1493 27.8205 31.872 27.7671 31.616C27.7138 31.36 27.6071 31.1573 27.4471 31.008C27.2871 30.848 27.0365 30.768 26.6951 30.768C26.3751 30.768 26.1351 30.848 25.9751 31.008C25.8151 31.1573 25.7085 31.36 25.6551 31.616C25.6018 31.872 25.5751 32.1493 25.5751 32.448V38.576C25.5751 38.8747 25.5965 39.1573 25.6391 39.424C25.6925 39.68 25.7991 39.888 25.9591 40.048C26.1191 40.1973 26.3645 40.272 26.6951 40.272ZM35.4979 42V29.04H39.6099C40.3885 29.04 41.0232 29.1893 41.5139 29.488C42.0045 29.776 42.3672 30.1973 42.6019 30.752C42.8472 31.3067 42.9699 31.9787 42.9699 32.768C42.9699 33.696 42.8099 34.4213 42.4899 34.944C42.1805 35.4667 41.7539 35.84 41.2099 36.064C40.6659 36.2773 40.0419 36.384 39.3379 36.384H38.1379V42H35.4979ZM38.1379 34.528H39.0659C39.4499 34.528 39.7432 34.4693 39.9459 34.352C40.1592 34.224 40.3032 34.0267 40.3779 33.76C40.4525 33.4933 40.4899 33.152 40.4899 32.736C40.4899 32.3413 40.4579 32.0107 40.3939 31.744C40.3405 31.4773 40.2125 31.2693 40.0099 31.12C39.8072 30.9707 39.4872 30.896 39.0499 30.896H38.1379V34.528ZM51.142 42.176C50.1927 42.176 49.4407 42.0053 48.886 41.664C48.3313 41.3227 47.9313 40.8373 47.686 40.208C47.4513 39.568 47.334 38.8053 47.334 37.92V33.088C47.334 32.2027 47.4513 31.4453 47.686 30.816C47.9313 30.1867 48.3313 29.7067 48.886 29.376C49.4407 29.0453 50.1927 28.88 51.142 28.88C52.102 28.88 52.8593 29.0507 53.414 29.392C53.9793 29.7227 54.3793 30.2027 54.614 30.832C54.8593 31.4507 54.982 32.2027 54.982 33.088V37.92C54.982 38.8053 54.8593 39.568 54.614 40.208C54.3793 40.8373 53.9793 41.3227 53.414 41.664C52.8593 42.0053 52.102 42.176 51.142 42.176ZM51.142 40.272C51.4833 40.272 51.734 40.1973 51.894 40.048C52.054 39.888 52.1607 39.68 52.214 39.424C52.2673 39.1573 52.294 38.8747 52.294 38.576V32.448C52.294 32.1493 52.2673 31.872 52.214 31.616C52.1607 31.36 52.054 31.1573 51.894 31.008C51.734 30.848 51.4833 30.768 51.142 30.768C50.822 30.768 50.582 30.848 50.422 31.008C50.262 31.1573 50.1553 31.36 50.102 31.616C50.0487 31.872 50.022 32.1493 50.022 32.448V38.576C50.022 38.8747 50.0433 39.1573 50.086 39.424C50.1393 39.68 50.246 39.888 50.406 40.048C50.566 40.1973 50.8113 40.272 51.142 40.272ZM59.9768 42V29.04H62.0888V36.8L65.5128 29.04H67.2408V42H65.0968V34.112L61.6408 42H59.9768ZM63.8168 28C63.0594 28 62.4621 27.792 62.0248 27.376C61.5981 26.9493 61.3848 26.352 61.3848 25.584H62.7608C62.7608 25.968 62.8408 26.2613 63.0008 26.464C63.1608 26.656 63.4328 26.752 63.8168 26.752C64.1901 26.752 64.4568 26.6507 64.6168 26.448C64.7874 26.2453 64.8728 25.9573 64.8728 25.584H66.2328C66.2328 26.352 66.0194 26.9493 65.5928 27.376C65.1661 27.792 64.5741 28 63.8168 28ZM79.578 42L79.802 29.04H82.602L84.202 37.216L85.914 29.04H88.618L88.842 42H86.922L86.714 33.216L85.066 42H83.418L81.69 33.152L81.514 42H79.578ZM93.983 42V29.04H96.095V36.8L99.519 29.04H101.247V42H99.103V34.112L95.647 42H93.983ZM106.432 42V29.04H110.544C111.323 29.04 111.958 29.1893 112.448 29.488C112.939 29.776 113.302 30.1973 113.536 30.752C113.782 31.3067 113.904 31.9787 113.904 32.768C113.904 33.696 113.744 34.4213 113.424 34.944C113.115 35.4667 112.688 35.84 112.144 36.064C111.6 36.2773 110.976 36.384 110.272 36.384H109.072V42H106.432ZM109.072 34.528H110C110.384 34.528 110.678 34.4693 110.88 34.352C111.094 34.224 111.238 34.0267 111.312 33.76C111.387 33.4933 111.424 33.152 111.424 32.736C111.424 32.3413 111.392 32.0107 111.328 31.744C111.275 31.4773 111.147 31.2693 110.944 31.12C110.742 30.9707 110.422 30.896 109.984 30.896H109.072V34.528ZM122.076 42.176C121.127 42.176 120.375 42.0053 119.82 41.664C119.266 41.3227 118.866 40.8373 118.62 40.208C118.386 39.568 118.268 38.8053 118.268 37.92V33.088C118.268 32.2027 118.386 31.4453 118.62 30.816C118.866 30.1867 119.266 29.7067 119.82 29.376C120.375 29.0453 121.127 28.88 122.076 28.88C123.036 28.88 123.794 29.0507 124.348 29.392C124.914 29.7227 125.314 30.2027 125.548 30.832C125.794 31.4507 125.916 32.2027 125.916 33.088V37.92C125.916 38.8053 125.794 39.568 125.548 40.208C125.314 40.8373 124.914 41.3227 124.348 41.664C123.794 42.0053 123.036 42.176 122.076 42.176ZM122.076 40.272C122.418 40.272 122.668 40.1973 122.828 40.048C122.988 39.888 123.095 39.68 123.148 39.424C123.202 39.1573 123.228 38.8747 123.228 38.576V32.448C123.228 32.1493 123.202 31.872 123.148 31.616C123.095 31.36 122.988 31.1573 122.828 31.008C122.668 30.848 122.418 30.768 122.076 30.768C121.756 30.768 121.516 30.848 121.356 31.008C121.196 31.1573 121.09 31.36 121.036 31.616C120.983 31.872 120.956 32.1493 120.956 32.448V38.576C120.956 38.8747 120.978 39.1573 121.02 39.424C121.074 39.68 121.18 39.888 121.34 40.048C121.5 40.1973 121.746 40.272 122.076 40.272ZM130.879 42V29.04H134.159C134.724 29.04 135.247 29.088 135.727 29.184C136.207 29.28 136.628 29.4507 136.991 29.696C137.364 29.9413 137.647 30.2827 137.839 30.72C138.042 31.1467 138.143 31.7067 138.143 32.4C138.143 32.9227 138.068 33.3707 137.919 33.744C137.77 34.1067 137.556 34.3947 137.279 34.608C137.002 34.8213 136.66 34.9653 136.255 35.04C136.756 35.1147 137.178 35.2853 137.519 35.552C137.86 35.8187 138.116 36.1707 138.287 36.608C138.458 37.0453 138.543 37.5733 138.543 38.192C138.543 38.8427 138.458 39.408 138.287 39.888C138.127 40.368 137.887 40.7627 137.567 41.072C137.247 41.3813 136.852 41.616 136.383 41.776C135.914 41.9253 135.37 42 134.751 42H130.879ZM133.519 40.144H134.255C134.916 40.144 135.37 39.9787 135.615 39.648C135.871 39.3173 135.999 38.8213 135.999 38.16C135.999 37.648 135.94 37.2427 135.823 36.944C135.706 36.6347 135.514 36.4107 135.247 36.272C134.991 36.1227 134.644 36.048 134.207 36.048H133.519V40.144ZM133.519 34.272H134.175C134.634 34.272 134.98 34.208 135.215 34.08C135.45 33.9413 135.61 33.7387 135.695 33.472C135.791 33.1947 135.839 32.8587 135.839 32.464C135.839 32.0693 135.77 31.7547 135.631 31.52C135.503 31.2747 135.3 31.0987 135.023 30.992C134.756 30.8853 134.415 30.832 133.999 30.832H133.519V34.272ZM146.883 42.176C145.933 42.176 145.181 42.0053 144.627 41.664C144.072 41.3227 143.672 40.8373 143.427 40.208C143.192 39.568 143.075 38.8053 143.075 37.92V33.088C143.075 32.2027 143.192 31.4453 143.427 30.816C143.672 30.1867 144.072 29.7067 144.627 29.376C145.181 29.0453 145.933 28.88 146.883 28.88C147.843 28.88 148.6 29.0507 149.155 29.392C149.72 29.7227 150.12 30.2027 150.355 30.832C150.6 31.4507 150.723 32.2027 150.723 33.088V37.92C150.723 38.8053 150.6 39.568 150.355 40.208C150.12 40.8373 149.72 41.3227 149.155 41.664C148.6 42.0053 147.843 42.176 146.883 42.176ZM146.883 40.272C147.224 40.272 147.475 40.1973 147.635 40.048C147.795 39.888 147.901 39.68 147.955 39.424C148.008 39.1573 148.035 38.8747 148.035 38.576V32.448C148.035 32.1493 148.008 31.872 147.955 31.616C147.901 31.36 147.795 31.1573 147.635 31.008C147.475 30.848 147.224 30.768 146.883 30.768C146.563 30.768 146.323 30.848 146.163 31.008C146.003 31.1573 145.896 31.36 145.843 31.616C145.789 31.872 145.763 32.1493 145.763 32.448V38.576C145.763 38.8747 145.784 39.1573 145.827 39.424C145.88 39.68 145.987 39.888 146.147 40.048C146.307 40.1973 146.552 40.272 146.883 40.272ZM155.717 42V29.04H157.829V36.8L161.253 29.04H162.981V42H160.837V34.112L157.381 42H155.717ZM159.557 28C158.8 28 158.203 27.792 157.765 27.376C157.339 26.9493 157.125 26.352 157.125 25.584H158.501C158.501 25.968 158.581 26.2613 158.741 26.464C158.901 26.656 159.173 26.752 159.557 26.752C159.931 26.752 160.197 26.6507 160.357 26.448C160.528 26.2453 160.613 25.9573 160.613 25.584H161.973C161.973 26.352 161.76 26.9493 161.333 27.376C160.907 27.792 160.315 28 159.557 28ZM175.367 42V29.04H178.647C179.212 29.04 179.735 29.088 180.215 29.184C180.695 29.28 181.116 29.4507 181.479 29.696C181.852 29.9413 182.135 30.2827 182.327 30.72C182.529 31.1467 182.631 31.7067 182.631 32.4C182.631 32.9227 182.556 33.3707 182.407 33.744C182.257 34.1067 182.044 34.3947 181.767 34.608C181.489 34.8213 181.148 34.9653 180.743 35.04C181.244 35.1147 181.665 35.2853 182.007 35.552C182.348 35.8187 182.604 36.1707 182.775 36.608C182.945 37.0453 183.031 37.5733 183.031 38.192C183.031 38.8427 182.945 39.408 182.775 39.888C182.615 40.368 182.375 40.7627 182.055 41.072C181.735 41.3813 181.34 41.616 180.871 41.776C180.401 41.9253 179.857 42 179.239 42H175.367ZM178.007 40.144H178.743C179.404 40.144 179.857 39.9787 180.103 39.648C180.359 39.3173 180.487 38.8213 180.487 38.16C180.487 37.648 180.428 37.2427 180.311 36.944C180.193 36.6347 180.001 36.4107 179.735 36.272C179.479 36.1227 179.132 36.048 178.695 36.048H178.007V40.144ZM178.007 34.272H178.663C179.121 34.272 179.468 34.208 179.703 34.08C179.937 33.9413 180.097 33.7387 180.183 33.472C180.279 33.1947 180.327 32.8587 180.327 32.464C180.327 32.0693 180.257 31.7547 180.119 31.52C179.991 31.2747 179.788 31.0987 179.511 30.992C179.244 30.8853 178.903 30.832 178.487 30.832H178.007V34.272ZM191.37 42.176C190.421 42.176 189.669 42.0053 189.114 41.664C188.559 41.3227 188.159 40.8373 187.914 40.208C187.679 39.568 187.562 38.8053 187.562 37.92V33.088C187.562 32.2027 187.679 31.4453 187.914 30.816C188.159 30.1867 188.559 29.7067 189.114 29.376C189.669 29.0453 190.421 28.88 191.37 28.88C192.33 28.88 193.087 29.0507 193.642 29.392C194.207 29.7227 194.607 30.2027 194.842 30.832C195.087 31.4507 195.21 32.2027 195.21 33.088V37.92C195.21 38.8053 195.087 39.568 194.842 40.208C194.607 40.8373 194.207 41.3227 193.642 41.664C193.087 42.0053 192.33 42.176 191.37 42.176ZM191.37 40.272C191.711 40.272 191.962 40.1973 192.122 40.048C192.282 39.888 192.389 39.68 192.442 39.424C192.495 39.1573 192.522 38.8747 192.522 38.576V32.448C192.522 32.1493 192.495 31.872 192.442 31.616C192.389 31.36 192.282 31.1573 192.122 31.008C191.962 30.848 191.711 30.768 191.37 30.768C191.05 30.768 190.81 30.848 190.65 31.008C190.49 31.1573 190.383 31.36 190.33 31.616C190.277 31.872 190.25 32.1493 190.25 32.448V38.576C190.25 38.8747 190.271 39.1573 190.314 39.424C190.367 39.68 190.474 39.888 190.634 40.048C190.794 40.1973 191.039 40.272 191.37 40.272ZM200.205 42V29.04H202.317V36.8L205.741 29.04H207.469V42H205.325V34.112L201.869 42H200.205ZM204.045 28C203.288 28 202.69 27.792 202.253 27.376C201.826 26.9493 201.613 26.352 201.613 25.584H202.989C202.989 25.968 203.069 26.2613 203.229 26.464C203.389 26.656 203.661 26.752 204.045 26.752C204.418 26.752 204.685 26.6507 204.845 26.448C205.016 26.2453 205.101 25.9573 205.101 25.584H206.461C206.461 26.352 206.248 26.9493 205.821 27.376C205.394 27.792 204.802 28 204.045 28ZM212.686 42V29.04H215.326V34.368H217.614V29.04H220.254V42H217.614V36.256H215.326V42H212.686ZM225.48 42V29.04H228.12V34.496H228.728C229.581 34.496 230.296 34.624 230.872 34.88C231.448 35.136 231.885 35.5413 232.184 36.096C232.483 36.64 232.632 37.3547 232.632 38.24C232.632 39.008 232.531 39.6373 232.328 40.128C232.125 40.608 231.843 40.9867 231.48 41.264C231.117 41.5413 230.685 41.7333 230.184 41.84C229.693 41.9467 229.149 42 228.552 42H225.48ZM228.12 40.256H228.568C228.963 40.256 229.277 40.1867 229.512 40.048C229.757 39.9093 229.933 39.6907 230.04 39.392C230.147 39.0827 230.195 38.6827 230.184 38.192C230.173 37.6267 230.056 37.1787 229.832 36.848C229.608 36.5067 229.176 36.336 228.536 36.336H228.12V40.256ZM233.768 42V29.04H236.408V42H233.768ZM0.476 70V57.04H3.756C4.32133 57.04 4.844 57.088 5.324 57.184C5.804 57.28 6.22533 57.4507 6.588 57.696C6.96133 57.9413 7.244 58.2827 7.436 58.72C7.63867 59.1467 7.74 59.7067 7.74 60.4C7.74 60.9227 7.66533 61.3707 7.516 61.744C7.36667 62.1067 7.15333 62.3947 6.876 62.608C6.59867 62.8213 6.25733 62.9653 5.852 63.04C6.35333 63.1147 6.77467 63.2853 7.116 63.552C7.45733 63.8187 7.71333 64.1707 7.884 64.608C8.05467 65.0453 8.14 65.5733 8.14 66.192C8.14 66.8427 8.05467 67.408 7.884 67.888C7.724 68.368 7.484 68.7627 7.164 69.072C6.844 69.3813 6.44933 69.616 5.98 69.776C5.51067 69.9253 4.96667 70 4.348 70H0.476ZM3.116 68.144H3.852C4.51333 68.144 4.96667 67.9787 5.212 67.648C5.468 67.3173 5.596 66.8213 5.596 66.16C5.596 65.648 5.53733 65.2427 5.42 64.944C5.30267 64.6347 5.11067 64.4107 4.844 64.272C4.588 64.1227 4.24133 64.048 3.804 64.048H3.116V68.144ZM3.116 62.272H3.772C4.23067 62.272 4.57733 62.208 4.812 62.08C5.04667 61.9413 5.20667 61.7387 5.292 61.472C5.388 61.1947 5.436 60.8587 5.436 60.464C5.436 60.0693 5.36667 59.7547 5.228 59.52C5.1 59.2747 4.89733 59.0987 4.62 58.992C4.35333 58.8853 4.012 58.832 3.596 58.832H3.116V62.272ZM20.0955 70V57.04H26.3515V59.04H22.7355V62.496H23.2955C24.1488 62.496 24.8635 62.624 25.4395 62.88C26.0155 63.136 26.4528 63.5413 26.7515 64.096C27.0502 64.64 27.1995 65.3547 27.1995 66.24C27.1995 67.008 27.0982 67.6373 26.8955 68.128C26.7035 68.608 26.4262 68.9867 26.0635 69.264C25.7008 69.5413 25.2688 69.7333 24.7675 69.84C24.2662 69.9467 23.7168 70 23.1195 70H20.0955ZM22.7355 68.256H23.1355C23.5302 68.256 23.8502 68.1867 24.0955 68.048C24.3408 67.9093 24.5115 67.6907 24.6075 67.392C24.7142 67.0827 24.7622 66.6827 24.7515 66.192C24.7408 65.6267 24.6235 65.1787 24.3995 64.848C24.1755 64.5067 23.7435 64.336 23.1035 64.336H22.7355V68.256ZM31.9198 70V57.04H37.5678V58.864H34.5598V62.304H36.8798V64.144H34.5598V68.208H37.5998V70H31.9198ZM41.2554 70V68.128C41.586 68.128 41.858 68.1067 42.0714 68.064C42.2954 68.0107 42.4714 67.8987 42.5994 67.728C42.738 67.5467 42.85 67.2747 42.9354 66.912C43.0207 66.5387 43.09 66.0427 43.1434 65.424C43.2074 64.8053 43.2714 64.0213 43.3354 63.072L43.7674 57.04H50.3754V70H47.7514V59.056H46.1354L45.8634 63.488C45.7994 64.512 45.7247 65.4027 45.6394 66.16C45.5647 66.9067 45.442 67.536 45.2714 68.048C45.1114 68.56 44.8714 68.9707 44.5514 69.28C44.242 69.5787 43.8207 69.7867 43.2874 69.904C42.754 70.0107 42.0767 70.0427 41.2554 70ZM54.9298 70L57.4418 57.04H60.3698L62.8658 70H60.4178L59.9538 67.152H57.9058L57.4098 70H54.9298ZM58.1458 65.536H59.6978L58.9138 60.304L58.1458 65.536ZM67.3791 70V57.04H71.4911C72.2698 57.04 72.9045 57.1893 73.3951 57.488C73.8858 57.776 74.2485 58.1973 74.4831 58.752C74.7285 59.3067 74.8511 59.9787 74.8511 60.768C74.8511 61.696 74.6911 62.4213 74.3711 62.944C74.0618 63.4667 73.6351 63.84 73.0911 64.064C72.5471 64.2773 71.9231 64.384 71.2191 64.384H70.0191V70H67.3791ZM70.0191 62.528H70.9471C71.3311 62.528 71.6245 62.4693 71.8271 62.352C72.0405 62.224 72.1845 62.0267 72.2591 61.76C72.3338 61.4933 72.3711 61.152 72.3711 60.736C72.3711 60.3413 72.3391 60.0107 72.2751 59.744C72.2218 59.4773 72.0938 59.2693 71.8911 59.12C71.6885 58.9707 71.3685 58.896 70.9311 58.896H70.0191V62.528ZM79.2793 72.416V70.64C79.7593 70.6613 80.1646 70.6453 80.4953 70.592C80.8259 70.5387 81.0873 70.432 81.2793 70.272C81.4819 70.1227 81.6099 69.9147 81.6633 69.648C81.7166 69.3813 81.7006 69.0507 81.6153 68.656L78.7673 57.04H81.2313L82.3353 62.416L82.8953 66.016L83.3273 62.4L84.2713 57.04H86.7513L84.1433 69.008C84.0259 69.584 83.8926 70.0693 83.7433 70.464C83.5939 70.8693 83.4073 71.2053 83.1833 71.472C82.9593 71.7387 82.6766 71.9413 82.3353 72.08C81.9939 72.2293 81.5726 72.3253 81.0713 72.368C80.5699 72.4213 79.9726 72.4373 79.2793 72.416ZM94.7229 70.176C93.7629 70.176 93.0002 69.9947 92.4349 69.632C91.8802 69.2693 91.4909 68.768 91.2669 68.128C91.0429 67.4773 90.9309 66.7253 90.9309 65.872V61.216C90.9309 60.32 91.0429 59.552 91.2669 58.912C91.4909 58.2613 91.8802 57.76 92.4349 57.408C93.0002 57.056 93.7629 56.88 94.7229 56.88C95.6509 56.88 96.3762 57.0347 96.8989 57.344C97.4322 57.6533 97.8055 58.0907 98.0189 58.656C98.2429 59.2213 98.3549 59.8773 98.3549 60.624V61.712H95.7949V60.496C95.7949 60.1973 95.7789 59.92 95.7469 59.664C95.7149 59.3973 95.6242 59.184 95.4749 59.024C95.3362 58.8533 95.0909 58.768 94.7389 58.768C94.3869 58.768 94.1309 58.8533 93.9709 59.024C93.8109 59.1947 93.7095 59.4187 93.6669 59.696C93.6242 59.9627 93.6029 60.2613 93.6029 60.592V66.48C93.6029 66.8427 93.6295 67.1627 93.6829 67.44C93.7469 67.7067 93.8589 67.9147 94.0189 68.064C94.1895 68.2027 94.4295 68.272 94.7389 68.272C95.0802 68.272 95.3202 68.192 95.4589 68.032C95.6082 67.8613 95.6989 67.6373 95.7309 67.36C95.7735 67.0827 95.7949 66.7893 95.7949 66.48V65.216H98.3549V66.288C98.3549 67.0453 98.2482 67.7173 98.0349 68.304C97.8215 68.88 97.4535 69.3387 96.9309 69.68C96.4082 70.0107 95.6722 70.176 94.7229 70.176ZM103.199 70V57.04H105.311V64.8L108.735 57.04H110.463V70H108.319V62.112L104.863 70H103.199ZM124.128 70V59.6C124.032 59.6533 123.899 59.712 123.728 59.776C123.568 59.8293 123.392 59.8933 123.2 59.968C123.008 60.032 122.827 60.096 122.656 60.16C122.485 60.2133 122.352 60.2613 122.256 60.304V58.48C122.384 58.416 122.555 58.3307 122.768 58.224C122.992 58.1173 123.227 58 123.472 57.872C123.717 57.744 123.947 57.6053 124.16 57.456C124.384 57.3067 124.555 57.168 124.672 57.04H126.592V70H124.128ZM135.434 70.176C134.634 70.176 133.994 70.0533 133.514 69.808C133.034 69.552 132.688 69.1787 132.474 68.688C132.261 68.1867 132.154 67.5787 132.154 66.864C132.154 66.832 132.154 66.8 132.154 66.768C132.154 66.736 132.154 66.704 132.154 66.672H134.49C134.49 67.216 134.544 67.6213 134.65 67.888C134.768 68.1547 135.034 68.288 135.45 68.288C135.706 68.288 135.904 68.208 136.042 68.048C136.181 67.888 136.277 67.616 136.33 67.232C136.384 66.848 136.41 66.3307 136.41 65.68V64.352C136.261 64.5867 136.042 64.768 135.754 64.896C135.466 65.024 135.136 65.0933 134.762 65.104C134.069 65.1147 133.514 64.9493 133.098 64.608C132.682 64.256 132.384 63.7867 132.202 63.2C132.032 62.6133 131.946 61.9627 131.946 61.248C131.946 60.3627 132.058 59.5947 132.282 58.944C132.506 58.2933 132.874 57.7867 133.386 57.424C133.909 57.0613 134.592 56.88 135.434 56.88C136.256 56.88 136.922 57.056 137.434 57.408C137.946 57.7493 138.32 58.2293 138.554 58.848C138.789 59.4667 138.906 60.192 138.906 61.024V65.744C138.906 66.5867 138.81 67.344 138.618 68.016C138.426 68.688 138.08 69.216 137.578 69.6C137.077 69.984 136.362 70.176 135.434 70.176ZM135.45 63.216C135.696 63.216 135.893 63.152 136.042 63.024C136.202 62.8853 136.325 62.752 136.41 62.624V60.56C136.41 60.2293 136.384 59.9253 136.33 59.648C136.277 59.3707 136.181 59.1467 136.042 58.976C135.904 58.8053 135.701 58.72 135.434 58.72C135.168 58.72 134.965 58.8107 134.826 58.992C134.688 59.1733 134.592 59.4293 134.538 59.76C134.496 60.0907 134.474 60.4907 134.474 60.96C134.474 61.3973 134.49 61.7867 134.522 62.128C134.554 62.4693 134.634 62.736 134.762 62.928C134.901 63.12 135.13 63.216 135.45 63.216ZM147.375 70V66.976H143.439V65.04L146.815 57.04H149.695V65.088H150.943V66.976H149.695V70H147.375ZM145.391 65.088H147.375V59.584L145.391 65.088ZM156.478 70V59.6C156.382 59.6533 156.249 59.712 156.078 59.776C155.918 59.8293 155.742 59.8933 155.55 59.968C155.358 60.032 155.177 60.096 155.006 60.16C154.835 60.2133 154.702 60.2613 154.606 60.304V58.48C154.734 58.416 154.905 58.3307 155.118 58.224C155.342 58.1173 155.577 58 155.822 57.872C156.067 57.744 156.297 57.6053 156.51 57.456C156.734 57.3067 156.905 57.168 157.022 57.04H158.942V70H156.478ZM164.632 65.344V63.76H168.648V65.344H164.632ZM175.065 70V59.6C174.969 59.6533 174.836 59.712 174.665 59.776C174.505 59.8293 174.329 59.8933 174.137 59.968C173.945 60.032 173.764 60.096 173.593 60.16C173.423 60.2133 173.289 60.2613 173.193 60.304V58.48C173.321 58.416 173.492 58.3307 173.705 58.224C173.929 58.1173 174.164 58 174.409 57.872C174.655 57.744 174.884 57.6053 175.097 57.456C175.321 57.3067 175.492 57.168 175.609 57.04H177.529V70H175.065ZM186.372 70.176C185.572 70.176 184.932 70.0533 184.452 69.808C183.972 69.552 183.625 69.1787 183.412 68.688C183.198 68.1867 183.092 67.5787 183.092 66.864C183.092 66.832 183.092 66.8 183.092 66.768C183.092 66.736 183.092 66.704 183.092 66.672H185.428C185.428 67.216 185.481 67.6213 185.588 67.888C185.705 68.1547 185.972 68.288 186.388 68.288C186.644 68.288 186.841 68.208 186.98 68.048C187.118 67.888 187.214 67.616 187.268 67.232C187.321 66.848 187.348 66.3307 187.348 65.68V64.352C187.198 64.5867 186.98 64.768 186.692 64.896C186.404 65.024 186.073 65.0933 185.7 65.104C185.006 65.1147 184.452 64.9493 184.036 64.608C183.62 64.256 183.321 63.7867 183.14 63.2C182.969 62.6133 182.884 61.9627 182.884 61.248C182.884 60.3627 182.996 59.5947 183.22 58.944C183.444 58.2933 183.812 57.7867 184.324 57.424C184.846 57.0613 185.529 56.88 186.372 56.88C187.193 56.88 187.86 57.056 188.372 57.408C188.884 57.7493 189.257 58.2293 189.492 58.848C189.726 59.4667 189.844 60.192 189.844 61.024V65.744C189.844 66.5867 189.748 67.344 189.556 68.016C189.364 68.688 189.017 69.216 188.516 69.6C188.014 69.984 187.3 70.176 186.372 70.176ZM186.388 63.216C186.633 63.216 186.83 63.152 186.98 63.024C187.14 62.8853 187.262 62.752 187.348 62.624V60.56C187.348 60.2293 187.321 59.9253 187.268 59.648C187.214 59.3707 187.118 59.1467 186.98 58.976C186.841 58.8053 186.638 58.72 186.372 58.72C186.105 58.72 185.902 58.8107 185.764 58.992C185.625 59.1733 185.529 59.4293 185.476 59.76C185.433 60.0907 185.412 60.4907 185.412 60.96C185.412 61.3973 185.428 61.7867 185.46 62.128C185.492 62.4693 185.572 62.736 185.7 62.928C185.838 63.12 186.068 63.216 186.388 63.216ZM198.312 70V66.976H194.376V65.04L197.752 57.04H200.632V65.088H201.88V66.976H200.632V70H198.312ZM196.328 65.088H198.312V59.584L196.328 65.088ZM209.747 70V66.976H205.811V65.04L209.187 57.04H212.067V65.088H213.315V66.976H212.067V70H209.747ZM207.763 65.088H209.747V59.584L207.763 65.088ZM225.005 70V57.04H230.781V59.008H227.645V70H225.005ZM235.361 70V57.04H241.137V59.008H238.001V70H235.361Z" fill="white"/>
</svg>
